<?xml version="1.0" encoding="UTF-8"?>
<svg version="1.1" xmlns="http://www.w3.org/2000/svg" width="378" height="326">
<path d="M0 0 C124.74 0 249.48 0 378 0 C378 107.58 378 215.16 378 326 C253.26 326 128.52 326 0 326 C0 218.42 0 110.84 0 0 Z " fill="#0D100E" transform="translate(0,0)"/>
<path d="M0 0 C5.25105442 -0.02464928 10.50207545 -0.04283568 15.75317383 -0.05493164 C17.54094021 -0.05997218 19.32870245 -0.06680454 21.11645508 -0.07543945 C23.68051168 -0.0875173 26.24451397 -0.09323094 28.80859375 -0.09765625 C29.6127623 -0.10281754 30.41693085 -0.10797882 31.24546814 -0.11329651 C33.16401715 -0.11349215 35.08245368 -0.06201983 37 0 C38 1 38 1 38.12304783 2.87219334 C38.12212604 3.69719806 38.12120424 4.52220278 38.12025452 5.37220764 C38.12231651 6.78784752 38.12231651 6.78784752 38.12442017 8.23208618 C38.11902725 9.79761734 38.11902725 9.79761734 38.11352539 11.39477539 C38.11367142 12.48732132 38.11381744 13.57986725 38.1139679 14.70552063 C38.11326822 18.33625233 38.10547329 21.96693346 38.09765625 25.59765625 C38.09579226 28.10729443 38.09436827 30.61693298 38.09336853 33.12657166 C38.08993348 39.06934593 38.08204273 45.01210384 38.07201904 50.95486969 C38.05976253 58.38201925 38.05437792 65.80917105 38.04882812 73.23632812 C38.03808811 86.49089655 38.02049008 99.74544306 38 113 C28.76 113 19.52 113 10 113 C10 108.38 10 103.76 10 99 C-2.375 99.495 -2.375 99.495 -15 100 C-16.98 104.29 -18.96 108.58 -21 113 C-30.24 113 -39.48 113 -49 113 C-48.25107424 110.00429695 -47.42395057 107.16646256 -46.4375 104.25 C-46.16808594 103.45078125 -45.89867187 102.6515625 -45.62109375 101.828125 C-45.41613281 101.22484375 -45.21117187 100.6215625 -45 100 C-44.34 100 -43.68 100 -43 100 C-42.89042969 99.40832031 -42.78085938 98.81664062 -42.66796875 98.20703125 C-42.50941406 97.41683594 -42.35085937 96.62664062 -42.1875 95.8125 C-42.03667969 95.03519531 -41.88585937 94.25789063 -41.73046875 93.45703125 C-40.88376323 90.60902176 -39.53579651 88.55020252 -38 86 C-36.50096973 82.78510806 -35.12866768 79.5179967 -33.75 76.25 C-33.35522461 75.32348633 -32.96044922 74.39697266 -32.55371094 73.44238281 C-30.67841571 69.02734151 -28.82931762 64.60332258 -27.03125 60.15625 C-26.72864258 59.40956055 -26.42603516 58.66287109 -26.11425781 57.89355469 C-25.56105299 56.52148171 -25.01302451 55.14730323 -24.47167969 53.77050781 C-22.72093981 49.41701615 -20.591506 45.41272828 -18.27587891 41.33447266 C-16.1423265 37.43071679 -14.35902867 33.37966894 -12.5625 29.3125 C-12.17634521 28.44616943 -11.79019043 27.57983887 -11.39233398 26.68725586 C-7.46332763 17.84760457 -3.58201746 8.98669693 0 0 Z " fill="#0BE248" transform="translate(223,92)"/>
<path d="M0 0 C7.57150556 5.97011107 10.93302494 13.56100005 12.71875 22.8828125 C13.09355455 26.77071046 12.98046875 30.69173395 12.98046875 34.59765625 C4.07046875 34.59765625 -4.83953125 34.59765625 -14.01953125 34.59765625 C-15.00953125 30.63765625 -15.99953125 26.67765625 -17.01953125 22.59765625 C-23.41825781 21.45043253 -23.41825781 21.45043253 -29.01953125 23.59765625 C-34.03908711 28.37235573 -36.44183396 34.24706639 -39.01953125 40.59765625 C-39.31988281 41.32984375 -39.62023437 42.06203125 -39.9296875 42.81640625 C-44.29455586 54.57303662 -45.96333587 68.55867373 -42.01953125 80.59765625 C-40.34921566 83.18664542 -39.27732219 83.51372432 -36.33203125 84.47265625 C-31.96179724 84.63757074 -28.72441756 83.97610179 -25.01953125 81.59765625 C-21.91638783 77.99006094 -20.00742364 74.24594992 -19.01953125 69.59765625 C-21.65953125 69.59765625 -24.29953125 69.59765625 -27.01953125 69.59765625 C-26.929501 67.99263415 -26.82140472 66.38862751 -26.70703125 64.78515625 C-26.64902344 63.89183594 -26.59101562 62.99851562 -26.53125 62.078125 C-25.80877862 57.16421662 -24.32636578 52.38938286 -23.01953125 47.59765625 C-8.49953125 47.59765625 6.02046875 47.59765625 20.98046875 47.59765625 C17.58046875 67.99765625 17.58046875 67.99765625 15.98046875 69.59765625 C13.30988024 69.73880786 10.65614637 69.64012732 7.98046875 69.59765625 C7.74263672 70.47164062 7.74263672 70.47164062 7.5 71.36328125 C3.2766144 86.20346492 -2.41542827 98.24598853 -15.90625 106.79296875 C-26.72876856 112.38029937 -39.63745711 113.42653181 -51.30859375 109.8984375 C-59.26590764 106.08030274 -64.89777849 98.68583386 -68.01953125 90.59765625 C-68.01953125 89.60765625 -68.01953125 88.61765625 -68.01953125 87.59765625 C-68.67953125 87.59765625 -69.33953125 87.59765625 -70.01953125 87.59765625 C-73.07482317 74.47626863 -72.50753657 61.77075586 -70.01953125 48.59765625 C-69.35953125 48.59765625 -68.69953125 48.59765625 -68.01953125 48.59765625 C-68.12265625 47.52515625 -68.22578125 46.45265625 -68.33203125 45.34765625 C-68.31435527 35.30769901 -61.50058362 25.28258249 -57.01953125 16.59765625 C-56.35953125 16.59765625 -55.69953125 16.59765625 -55.01953125 16.59765625 C-54.77847656 15.85644531 -54.53742187 15.11523438 -54.2890625 14.3515625 C-52.1067974 9.6177259 -47.95549375 6.88338944 -44.01953125 3.59765625 C-43.23578125 2.85515625 -42.45203125 2.11265625 -41.64453125 1.34765625 C-29.71192187 -6.60741667 -12.0460712 -8.36468 0 0 Z " fill="#0AE348" transform="translate(104.01953125,95.40234375)"/>
<path d="M0 0 C3.9102275 -0.07531552 7.82016232 -0.12913851 11.73095703 -0.16479492 C13.69969568 -0.1869343 15.66823362 -0.22509352 17.63671875 -0.26367188 C25.88186932 -0.32645221 33.11900928 0.54893451 41 3 C41 3.66 41 4.32 41 5 C41.57363281 5.09539062 42.14726562 5.19078125 42.73828125 5.2890625 C45.5026308 6.15799448 47.02828523 7.45479774 49.1875 9.375 C49.88230469 9.98085937 50.57710938 10.58671875 51.29296875 11.2109375 C53 13 53 13 54 16 C54.66 16 55.32 16 56 16 C59.24959914 24.05335438 60.23178657 31.04837614 59.625 39.6875 C59.58117187 40.43322266 59.53734375 41.17894531 59.4921875 41.94726562 C59.26966784 45.41177315 58.90974695 48.65326493 58 52 C57.34 52 56.68 52 56 52 C55.7215625 53.8871875 55.7215625 53.8871875 55.4375 55.8125 C53.59849697 64.12742082 48.28643292 71.39318145 42 77 C41.42121094 77.63679688 40.84242188 78.27359375 40.24609375 78.9296875 C34.10293031 84.59208163 25.26838327 87.67574968 17 88 C17 88.66 17 89.32 17 90 C8.75 90 0.5 90 -8 90 C-8 90.66 -8 91.32 -8 92 C-7.13375 92.268125 -6.2675 92.53625 -5.375 92.8125 C-2.08208036 93.97111987 0.91127875 95.38209839 4 97 C3.88487847 98.72985242 3.75744323 100.45888751 3.625 102.1875 C3.55539062 103.15042969 3.48578125 104.11335938 3.4140625 105.10546875 C3 108 3 108 1 113 C-7.58 113 -16.16 113 -25 113 C-23.76139332 105.5683599 -22.49034542 98.24740835 -20.87695312 90.90454102 C-20.67504868 89.97447739 -20.47314423 89.04441376 -20.26512146 88.08616638 C-19.6068609 85.05807709 -18.94428109 82.03095428 -18.28125 79.00390625 C-17.81794023 76.88072083 -17.35476708 74.7575056 -16.89172363 72.63426208 C-15.92543658 68.20698467 -14.95688327 63.78021045 -13.98681641 59.35375977 C-12.74443372 53.68341611 -11.5087337 48.01163939 -10.27481842 42.33944798 C-9.32216373 37.96449489 -8.36551394 33.59042269 -7.40769958 29.2165966 C-6.95024823 27.12492129 -6.49415175 25.03294919 -6.03944397 22.94067574 C-5.40477669 20.02276005 -4.76462081 17.10610097 -4.12304688 14.18969727 C-3.93701401 13.32885529 -3.75098114 12.46801331 -3.55931091 11.58108521 C-2.6670297 7.55173431 -1.70361017 3.78244018 0 0 Z " fill="#0AE248" transform="translate(289,92)"/>
<path d="M0 0 C6.08726168 4.92316383 9.79161382 10.32277718 10.75 18.25 C10.93701816 21.92638335 11.02757293 25.57700006 10.75 29.25 C9.75 30.25 9.75 30.25 7.43334961 30.36352539 C6.43311768 30.35828857 5.43288574 30.35305176 4.40234375 30.34765625 C3.32275391 30.34443359 2.24316406 30.34121094 1.13085938 30.33789062 C-0.00544922 30.32951172 -1.14175781 30.32113281 -2.3125 30.3125 C-3.45267578 30.30798828 -4.59285156 30.30347656 -5.76757812 30.29882812 C-8.59510351 30.28699747 -11.4225264 30.2705141 -14.25 30.25 C-14.42015625 29.62351563 -14.5903125 28.99703125 -14.765625 28.3515625 C-15.00796875 27.53429687 -15.2503125 26.71703125 -15.5 25.875 C-15.84804687 24.65683594 -15.84804687 24.65683594 -16.203125 23.4140625 C-17.49757464 20.73822257 -18.49177067 20.23802245 -21.25 19.25 C-23.24110401 18.86709538 -25.24100513 18.52395385 -27.25 18.25 C-29.22709613 23.01829066 -29.43829222 26.22260982 -28.25 31.25 C-25.82890839 36.10899635 -22.16888531 39.69826956 -18.4375 43.5625 C-5.25 57.22852188 -5.25 57.22852188 -5.25 63.25 C-4.59 63.25 -3.93 63.25 -3.25 63.25 C-2.43565857 66.10160391 -2.13118758 68.61626131 -2.15234375 71.578125 C-2.15717773 72.77695313 -2.15717773 72.77695313 -2.16210938 74 C-2.17467773 75.2375 -2.17467773 75.2375 -2.1875 76.5 C-2.19201172 77.34046875 -2.19652344 78.1809375 -2.20117188 79.046875 C-2.21292039 81.11461401 -2.23085478 83.18231624 -2.25 85.25 C-2.91 85.25 -3.57 85.25 -4.25 85.25 C-4.29125 86.219375 -4.3325 87.18875 -4.375 88.1875 C-5.55482675 95.88742192 -10.64657411 101.10404015 -16.625 105.6875 C-26.31237642 112.21933692 -36.6474775 112.6240942 -48.16015625 110.78515625 C-53.99191691 109.26186792 -59.0482059 106.63037035 -63.25 102.25 C-64.75 98.875 -64.75 98.875 -65.25 96.25 C-65.91 96.25 -66.57 96.25 -67.25 96.25 C-69.89054204 89.31857714 -69.39022201 82.61165572 -69.25 75.25 C-60.34 75.25 -51.43 75.25 -42.25 75.25 C-41.59 78.88 -40.93 82.51 -40.25 86.25 C-38.27 86.91 -36.29 87.57 -34.25 88.25 C-34.25 87.59 -34.25 86.93 -34.25 86.25 C-33.76660156 85.79882812 -33.28320312 85.34765625 -32.78515625 84.8828125 C-30.88550269 82.86231584 -30.76120124 81.86668602 -30.6875 79.125 C-30.94855375 71.11064984 -36.7285876 65.50207521 -42.25 60.25 C-51.13148842 50.81470052 -57.14330149 41.52845443 -57.625 28.1875 C-57.24843362 17.42112498 -52.82320443 9.24954501 -45.16796875 1.85546875 C-32.86505029 -8.44290087 -13.00904333 -9.04346135 0 0 Z " fill="#0BE148" transform="translate(182.25,95.75)"/>
<path d="M0 0 C0.495 0.99 0.495 0.99 1 2 C0.27472413 3.74725552 -0.45590386 5.49277892 -1.23046875 7.21875 C-4.91456971 15.74641516 -3.22816686 25.24687116 -0.3984375 33.74609375 C3.07493651 41.82799473 8.3204597 47.45740273 15 53 C23.13897252 63.52685289 23.13897252 63.52685289 23.1875 69.4375 C23.20167969 70.21996094 23.21585937 71.00242187 23.23046875 71.80859375 C23 74 23 74 21 77 C20.34 77 19.68 77 19 77 C19 77.66 19 78.32 19 79 C13.45574388 78.51789077 13.45574388 78.51789077 11.625 76.4375 C11 74 11 74 11 66 C2.09 66 -6.82 66 -16 66 C-15.34550877 76.53842578 -15.34550877 76.53842578 -14 87 C-17.875 85.25 -17.875 85.25 -19 83 C-19.99 83.33 -20.98 83.66 -22 84 C-22.495 85.485 -22.495 85.485 -23 87 C-23 86.01 -23 85.02 -23 84 C-24.98 84.495 -24.98 84.495 -27 85 C-23.66666667 76.66666667 -20.33333333 68.33333333 -17 60 C-14.36 59.67 -11.72 59.34 -9 59 C-7.35 52.07 -5.7 45.14 -4 38 C-18.52 38 -33.04 38 -48 38 C-48.66 41.63 -49.32 45.26 -50 49 C-50.66666667 52.66666667 -51.33333333 56.33333333 -52 60 C-49.36 60 -46.72 60 -44 60 C-44.39702724 65.42603897 -46.13928948 69.22487173 -50 73 C-53.71101072 75.23729659 -56.93021176 76.02057285 -61.25 75.9375 C-64.60901481 74.79238132 -65.92419296 73.89130266 -68 71 C-73.30126514 55.36126784 -68.42493788 38.56319253 -62 24 C-60.5288219 21.141952 -58.96044288 18.54454744 -57 16 C-56.071875 14.7934375 -56.071875 14.7934375 -55.125 13.5625 C-52.10502784 11.34193224 -49.71179221 11.13023832 -46 11 C-43.1875 11.5 -43.1875 11.5 -41 13 C-39.29887667 17.29331127 -39 20.33827971 -39 25 C-30.09 25 -21.18 25 -12 25 C-12.99 17.74 -13.98 10.48 -15 3 C-14.34 3 -13.68 3 -13 3 C-12.505 5.97 -12.505 5.97 -12 9 C-11.34 9 -10.68 9 -10 9 C-9.80426392 10.43640171 -9.61872184 11.87419504 -9.4375 13.3125 C-9.28087891 14.51326172 -9.28087891 14.51326172 -9.12109375 15.73828125 C-9 18 -9 18 -10 21 C-9.01 21 -8.02 21 -7 21 C-7 21.99 -7 22.98 -7 24 C-6.34 24 -5.68 24 -5 24 C-5.01160156 22.81921875 -5.02320312 21.6384375 -5.03515625 20.421875 C-5.04453752 18.86458492 -5.05363736 17.30729312 -5.0625 15.75 C-5.07087891 14.97269531 -5.07925781 14.19539063 -5.08789062 13.39453125 C-5.09111328 12.64042969 -5.09433594 11.88632813 -5.09765625 11.109375 C-5.10289307 10.41811523 -5.10812988 9.72685547 -5.11352539 9.01464844 C-4.99437971 6.90026102 -4.57618237 5.03358485 -4 3 C-3.01 3 -2.02 3 -1 3 C-0.67 2.01 -0.34 1.02 0 0 Z " fill="#0B130E" transform="translate(129,105)"/>
<path d="M0 0 C0.33 0 0.66 0 1 0 C1.33 31.68 1.66 63.36 2 96 C2.66 95.67 3.32 95.34 4 95 C4.61272305 92.91193 4.61272305 92.91193 5 90.5 C5.4375 88.03125 5.4375 88.03125 6 86 C6.66 85.67 7.32 85.34 8 85 C7.35121306 93.92082036 5.11722918 102.32619011 3 111 C11.58 110.67 20.16 110.34 29 110 C29.99 105.05 30.98 100.1 32 95 C29.03 94.01 29.03 94.01 26 93 C23.98529902 92.02995879 21.98077953 91.03755118 20 90 C20 89.34 20 88.68 20 88 C25.61 88 31.22 88 37 88 C37 88.33 37 88.66 37 89 C34.03 89 31.06 89 28 89 C28 89.99 28 90.98 28 92 C30.97 92.495 30.97 92.495 34 93 C34.35309809 100.11427272 34.01004614 105.49830034 31 112 C29.28205534 113.71794466 27.09825036 113.12819162 24.80764771 113.13882446 C24.07319427 113.13684052 23.33874084 113.13485657 22.58203125 113.1328125 C21.43998734 113.13479141 21.43998734 113.13479141 20.27487183 113.1368103 C17.78737376 113.13873417 15.29998669 113.132381 12.8125 113.125 C11.97441803 113.12411377 11.13633606 113.12322754 10.27285767 113.12231445 C-2.83997508 113.10593699 -15.9097922 112.81540783 -29 112 C-29 107.38 -29 102.76 -29 98 C-32.25028091 98.14092546 -35.50013403 98.28754062 -38.75 98.4375 C-39.67039062 98.47681641 -40.59078125 98.51613281 -41.5390625 98.55664062 C-42.42851562 98.59853516 -43.31796875 98.64042969 -44.234375 98.68359375 C-45.05131836 98.72025146 -45.86826172 98.75690918 -46.70996094 98.79467773 C-48.9034423 98.99134275 -50.88396413 99.40300594 -53 100 C-53.02578125 100.60328125 -53.0515625 101.2065625 -53.078125 101.828125 C-53.13484375 102.62734375 -53.1915625 103.4265625 -53.25 104.25 C-53.29640625 105.03890625 -53.3428125 105.8278125 -53.390625 106.640625 C-54.23111875 109.89484437 -55.31385308 110.96580993 -58 113 C-60.8896512 113.3491005 -63.3859271 113.4681562 -66.265625 113.390625 C-67.05902283 113.38496521 -67.85242065 113.37930542 -68.66986084 113.37347412 C-71.19719473 113.35113147 -73.72309665 113.30094176 -76.25 113.25 C-77.96612532 113.22993214 -79.68227292 113.21168187 -81.3984375 113.1953125 C-85.5995078 113.15127395 -89.79951135 113.08226326 -94 113 C-93.34 111.68 -92.68 110.36 -92 109 C-95.465 109.495 -95.465 109.495 -99 110 C-96.59903058 107.53043145 -94.36180066 105.24421544 -91.5 103.3125 C-86.95580311 99.10911788 -84.28409734 93.02967447 -83 87 C-82.34 87 -81.68 87 -81 87 C-81.33 79.74 -81.66 72.48 -82 65 C-82.66 65 -83.32 65 -84 65 C-84.26425781 64.26523438 -84.52851563 63.53046875 -84.80078125 62.7734375 C-87.69275439 56.08516086 -93.072974 50.77943054 -98.23046875 45.75 C-107.95634495 36.13147343 -107.95634495 36.13147343 -109 30 C-108.71333497 25.77169086 -108.36270192 23.54405288 -106 20 C-97.77653403 20.34479941 -97.77653403 20.34479941 -95 22.6875 C-94 25 -94 25 -93 31 C-85.08 31 -77.16 31 -69 31 C-69 24.22645857 -69.01413042 18.53138599 -70 12 C-68.02 12.33 -66.04 12.66 -64 13 C-63.97287649 15.39591038 -63.9531018 17.79150957 -63.9375 20.1875 C-63.92912109 20.86103516 -63.92074219 21.53457031 -63.91210938 22.22851562 C-63.89393462 25.95434131 -64.10700608 29.3788042 -65 33 C-64.01 33.66 -63.02 34.32 -62 35 C-62.99 35.33 -63.98 35.66 -65 36 C-64.67 36.99 -64.34 37.98 -64 39 C-63.34 39 -62.68 39 -62 39 C-61.566875 38.030625 -61.13375 37.06125 -60.6875 36.0625 C-59 33 -59 33 -56 32 C-55.01 32.495 -55.01 32.495 -54 33 C-54 32.01 -54 31.02 -54 30 C-53.34 30 -52.68 30 -52 30 C-52.061875 29.0925 -52.12375 28.185 -52.1875 27.25 C-51.97583449 23.58113122 -51.29198801 22.73275494 -49 20 C-48.4740625 18.6696875 -48.4740625 18.6696875 -47.9375 17.3125 C-47 15 -47 15 -45 14 C-45.60321117 17.4788777 -46.50528673 20.52091328 -47.890625 23.765625 C-48.27089844 24.65636719 -48.65117187 25.54710938 -49.04296875 26.46484375 C-49.44128906 27.38394531 -49.83960938 28.30304688 -50.25 29.25 C-50.82427734 30.60544922 -50.82427734 30.60544922 -51.41015625 31.98828125 C-53.25358387 36.27317154 -55.17544536 40.42379088 -57.48828125 44.4765625 C-60.36776809 49.52656738 -62.65430852 54.78428231 -64.9375 60.125 C-65.370625 61.12748779 -65.80375 62.12997559 -66.25 63.1628418 C-69.26003718 70.16510926 -72.12526924 77.21182436 -74.84375 84.33203125 C-76 87 -76 87 -78 89 C-78.59834554 90.52056618 -79.13506656 92.06612088 -79.625 93.625 C-79.88539063 94.44226563 -80.14578125 95.25953125 -80.4140625 96.1015625 C-80.60742188 96.72804688 -80.80078125 97.35453125 -81 98 C-81.66 98 -82.32 98 -83 98 C-83.103125 99.03125 -83.20625 100.0625 -83.3125 101.125 C-84 105 -84 105 -87 111 C-77.76 111 -68.52 111 -59 111 C-58.67 109.35 -58.34 107.7 -58 106 C-56.35 103.03 -54.7 100.06 -53 97 C-44.75 97 -36.5 97 -28 97 C-28 101.62 -28 106.24 -28 111 C-18.76 111 -9.52 111 0 111 C0 74.37 0 37.74 0 0 Z " fill="#0B120F" transform="translate(261,94)"/>
<path d="M0 0 C0.33 0 0.66 0 1 0 C1.33 31.68 1.66 63.36 2 96 C2.66 95.67 3.32 95.34 4 95 C4.61272305 92.91193 4.61272305 92.91193 5 90.5 C5.4375 88.03125 5.4375 88.03125 6 86 C6.66 85.67 7.32 85.34 8 85 C7.35121306 93.92082036 5.11722918 102.32619011 3 111 C11.58 110.67 20.16 110.34 29 110 C29.99 105.05 30.98 100.1 32 95 C29.03 94.01 29.03 94.01 26 93 C23.98529902 92.02995879 21.98077953 91.03755118 20 90 C20 89.34 20 88.68 20 88 C25.61 88 31.22 88 37 88 C37 88.33 37 88.66 37 89 C34.03 89 31.06 89 28 89 C28 89.99 28 90.98 28 92 C30.97 92.495 30.97 92.495 34 93 C34.35309809 100.11427272 34.01004614 105.49830034 31 112 C29.28205534 113.71794466 27.09825036 113.12819162 24.80764771 113.13882446 C24.07319427 113.13684052 23.33874084 113.13485657 22.58203125 113.1328125 C21.43998734 113.13479141 21.43998734 113.13479141 20.27487183 113.1368103 C17.78737376 113.13873417 15.29998669 113.132381 12.8125 113.125 C11.97441803 113.12411377 11.13633606 113.12322754 10.27285767 113.12231445 C-2.83997508 113.10593699 -15.9097922 112.81540783 -29 112 C-29 107.38 -29 102.76 -29 98 C-32.25028091 98.14092546 -35.50013403 98.28754062 -38.75 98.4375 C-39.67039063 98.47681641 -40.59078125 98.51613281 -41.5390625 98.55664062 C-42.42851562 98.59853516 -43.31796875 98.64042969 -44.234375 98.68359375 C-45.05131836 98.72025146 -45.86826172 98.75690918 -46.70996094 98.79467773 C-48.9034423 98.99134275 -50.88396413 99.40300594 -53 100 C-53.02578125 100.60328125 -53.0515625 101.2065625 -53.078125 101.828125 C-53.13484375 102.62734375 -53.1915625 103.4265625 -53.25 104.25 C-53.29640625 105.03890625 -53.3428125 105.8278125 -53.390625 106.640625 C-54.23111875 109.89484437 -55.31385308 110.96580993 -58 113 C-60.8896512 113.3491005 -63.3859271 113.4681562 -66.265625 113.390625 C-67.05902283 113.38496521 -67.85242065 113.37930542 -68.66986084 113.37347412 C-71.19719473 113.35113147 -73.72309665 113.30094176 -76.25 113.25 C-77.96612532 113.22993214 -79.68227292 113.21168187 -81.3984375 113.1953125 C-85.5995078 113.15127395 -89.79951135 113.08226326 -94 113 C-93.34 111.68 -92.68 110.36 -92 109 C-95.465 109.495 -95.465 109.495 -99 110 C-96.59903058 107.53043145 -94.36180066 105.24421544 -91.5 103.3125 C-86.95580311 99.10911788 -84.28409734 93.02967447 -83 87 C-82.34 87 -81.68 87 -81 87 C-81.33 79.74 -81.66 72.48 -82 65 C-82.66 65 -83.32 65 -84 65 C-84.33 63.35 -84.66 61.7 -85 60 C-84.34 60 -83.68 60 -83 60 C-80.09229046 65.68567876 -79.6135149 70.10569223 -79.8125 76.4375 C-79.83280273 77.67790039 -79.83280273 77.67790039 -79.85351562 78.94335938 C-79.88853008 80.9625264 -79.94232438 82.98135318 -80 85 C-79.34 85 -78.68 85 -78 85 C-77.67 83.35 -77.34 81.7 -77 80 C-76.34 80 -75.68 80 -75 80 C-75 78.35 -75 76.7 -75 75 C-74.01 75 -73.02 75 -72 75 C-73.56230207 80.08579184 -75.25799851 84.42999751 -78 89 C-79.10378342 91.96862298 -80.07009415 94.97285967 -81 98 C-81.66 98 -82.32 98 -83 98 C-83.1546875 99.546875 -83.1546875 99.546875 -83.3125 101.125 C-84 105 -84 105 -87 111 C-77.76 111 -68.52 111 -59 111 C-58.67 109.35 -58.34 107.7 -58 106 C-56.35 103.03 -54.7 100.06 -53 97 C-44.75 97 -36.5 97 -28 97 C-28 101.62 -28 106.24 -28 111 C-18.76 111 -9.52 111 0 111 C0 74.37 0 37.74 0 0 Z " fill="#032607" transform="translate(261,94)"/>
<path d="M0 0 C0.33 0 0.66 0 1 0 C1.027193 1.58323688 1.04648306 3.16661062 1.0625 4.75 C1.07410156 5.63171875 1.08570313 6.5134375 1.09765625 7.421875 C1.00826198 9.7818838 0.66912821 11.74498524 0 14 C1.32 14 2.64 14 4 14 C3.34 12.02 2.68 10.04 2 8 C5 6 5 6 8 6 C8.33 8.64 8.66 11.28 9 14 C10.2684375 14.12375 10.2684375 14.12375 11.5625 14.25 C15.72113491 15.15733853 18.39582699 16.76541273 22 19 C21.88487847 20.72985242 21.75744323 22.45888751 21.625 24.1875 C21.55539062 25.15042969 21.48578125 26.11335938 21.4140625 27.10546875 C21 30 21 30 19 35 C10.42 35 1.84 35 -7 35 C-4.75 21.5 -4.75 21.5 -3.7109375 16.796875 C-3.49179687 15.79785156 -3.27265625 14.79882812 -3.046875 13.76953125 C-2.82515625 12.77308594 -2.6034375 11.77664062 -2.375 10.75 C-2.14554687 9.70714844 -1.91609375 8.66429687 -1.6796875 7.58984375 C-1.1225001 5.05928432 -0.56258112 2.52936474 0 0 Z " fill="#0DE049" transform="translate(271,170)"/>
<path d="M0 0 C3.08301416 -0.11644156 6.16546123 -0.18732432 9.25 -0.25 C10.12269531 -0.28351563 10.99539063 -0.31703125 11.89453125 -0.3515625 C18.39276152 -0.45077212 18.39276152 -0.45077212 21.546875 1.890625 C25.43469962 7.53424139 24.56274133 14.38987129 23.5390625 20.95703125 C21.922066 27.75792827 19.30020609 34.24488961 13.1953125 38.15625 C9.95002435 39.66050373 7.60005734 40 4 40 C5.02678954 32.35311999 6.39131941 24.84187873 8.0625 17.3125 C8.2368457 16.52246582 8.41119141 15.73243164 8.59082031 14.91845703 C9.86928728 9.26142543 9.86928728 9.26142543 11 7 C9.948125 6.5978125 9.948125 6.5978125 8.875 6.1875 C5.8350176 4.9318551 2.9272226 3.49764877 0 2 C0 1.34 0 0.68 0 0 Z " fill="#08160D" transform="translate(297,117)"/>
<path d="M0 0 C5.25105442 -0.02464928 10.50207545 -0.04283568 15.75317383 -0.05493164 C17.54094021 -0.05997218 19.32870245 -0.06680454 21.11645508 -0.07543945 C23.68051168 -0.0875173 26.24451397 -0.09323094 28.80859375 -0.09765625 C29.6127623 -0.10281754 30.41693085 -0.10797882 31.24546814 -0.11329651 C33.16401715 -0.11349215 35.08245368 -0.06201983 37 0 C38 1 38 1 38.12304783 2.87219334 C38.12212604 3.69719806 38.12120424 4.52220278 38.12025452 5.37220764 C38.12231651 6.78784752 38.12231651 6.78784752 38.12442017 8.23208618 C38.11902725 9.79761734 38.11902725 9.79761734 38.11352539 11.39477539 C38.11367142 12.48732132 38.11381744 13.57986725 38.1139679 14.70552063 C38.11326822 18.33625233 38.10547329 21.96693346 38.09765625 25.59765625 C38.09579226 28.10729443 38.09436827 30.61693298 38.09336853 33.12657166 C38.08993348 39.06934593 38.08204273 45.01210384 38.07201904 50.95486969 C38.05976253 58.38201925 38.05437792 65.80917105 38.04882812 73.23632812 C38.03808811 86.49089655 38.02049008 99.74544306 38 113 C28.76 113 19.52 113 10 113 C10 112.67 10 112.34 10 112 C18.91 112 27.82 112 37 112 C37 75.7 37 39.4 37 2 C25.45 2 13.9 2 2 2 C1.67 5.3 1.34 8.6 1 12 C0.34 12.33 -0.32 12.66 -1 13 C-1.28875 14.093125 -1.5775 15.18625 -1.875 16.3125 C-3.07656064 20.25094877 -4.14126961 21.22789781 -7 24 C-8.64572568 27.41804565 -9.92257675 30.73869652 -11 34.375 C-11.33 35.24125 -11.66 36.1075 -12 37 C-13.485 37.495 -13.485 37.495 -15 38 C-14.938125 39.11375 -14.87625 40.2275 -14.8125 41.375 C-14.9053125 43.169375 -14.9053125 43.169375 -15 45 C-15.99 45.66 -16.98 46.32 -18 47 C-19.1611984 49.23639384 -19.1611984 49.23639384 -20.0625 51.8125 C-20.38347656 52.66457031 -20.70445312 53.51664063 -21.03515625 54.39453125 C-21.35355469 55.25433594 -21.67195313 56.11414063 -22 57 C-22.66228784 58.66841153 -23.32767004 60.33560983 -24 62 C-24.66 62 -25.32 62 -26 62 C-26 64.31 -26 66.62 -26 69 C-26.639375 69.24492187 -27.27875 69.48984375 -27.9375 69.7421875 C-30.14711387 70.79573163 -30.14711387 70.79573163 -30.6875 72.8828125 C-30.790625 73.62273437 -30.89375 74.36265625 -31 75.125 C-31.86804575 79.99394752 -33.63725568 83.66830207 -36 88 C-36.66 88 -37.32 88 -38 88 C-35.92067937 81.36193561 -33.40157425 74.99978187 -30.625 68.625 C-30.22289307 67.69598877 -29.82078613 66.76697754 -29.40649414 65.80981445 C-28.27600657 63.20432064 -27.1394932 60.6015655 -26 58 C-25.29810547 56.39318359 -25.29810547 56.39318359 -24.58203125 54.75390625 C-22.63488398 50.38777739 -20.55163192 46.11851941 -18.36401367 41.86767578 C-11.41234341 28.30067873 -5.63240679 14.15821728 0 0 Z " fill="#22A645" transform="translate(223,92)"/>
<path d="M0 0 C1.98 0.33 3.96 0.66 6 1 C6.08139142 3.39652528 6.14067009 5.79025436 6.1875 8.1875 C6.21263672 8.86103516 6.23777344 9.53457031 6.26367188 10.22851562 C6.32931539 14.71415591 5.68855807 17.40396893 3 21 C1.45966834 22.54033166 -0.006541 22.14469714 -2.1484375 22.17578125 C-2.98890625 22.19962891 -3.829375 22.22347656 -4.6953125 22.24804688 C-6.47371849 22.29082195 -8.25243785 22.32217762 -10.03125 22.34179688 C-15.02824029 22.32445618 -15.02824029 22.32445618 -18.9765625 24.98046875 C-19.31429687 25.64691406 -19.65203125 26.31335938 -20 27 C-21.33333333 27.66666667 -22.66666667 28.33333333 -24 29 C-25.73425773 31.03317007 -25.73425773 31.03317007 -27 33 C-31.66797995 31.44400668 -34.09955145 27.86251379 -37 24 C-39.27812555 19.34882701 -39.13729102 16.02303533 -38 11 C-37.34 10.01 -36.68 9.02 -36 8 C-27.77653403 8.34479941 -27.77653403 8.34479941 -25 10.6875 C-24 13 -24 13 -23 19 C-15.08 19 -7.16 19 1 19 C1 12.22645857 0.98586958 6.53138599 0 0 Z " fill="#0B110C" transform="translate(191,106)"/>
<path d="M0 0 C0.33 0 0.66 0 1 0 C1.11056347 9.95071218 1.00025177 19.86963731 0.5625 29.8125 C0.52326416 30.74852051 0.48402832 31.68454102 0.44360352 32.64892578 C0.40162842 33.53435059 0.35965332 34.41977539 0.31640625 35.33203125 C0.27974854 36.11296143 0.24309082 36.8938916 0.20532227 37.69848633 C-0.01387292 40.15550541 -0.51622521 42.58112604 -1 45 C-6.28 45 -11.56 45 -17 45 C-15.125 36.25 -15.125 36.25 -14 34 C-13.34 34 -12.68 34 -12 34 C-11.87616943 33.28972656 -11.75233887 32.57945312 -11.62475586 31.84765625 C-10.98002297 28.9089441 -10.06976104 26.249807 -9.00390625 23.4375 C-8.61009766 22.39335937 -8.21628906 21.34921875 -7.81054688 20.2734375 C-7.39869141 19.19320312 -6.98683594 18.11296875 -6.5625 17 C-6.15451172 15.91976562 -5.74652344 14.83953125 -5.32617188 13.7265625 C-3.58875815 9.13502866 -1.83424396 4.55384251 0 0 Z " fill="#0B110C" transform="translate(235,122)"/>
<path d="M0 0 C1.9451 2.91765 2.45276317 4.62537285 3 8 C2.34 8 1.68 8 1 8 C1.020625 8.969375 1.04125 9.93875 1.0625 10.9375 C1 14 1 14 0 15 C-0.23363881 16.84891946 -0.41303635 18.70488031 -0.5625 20.5625 C-0.64628906 21.57441406 -0.73007813 22.58632812 -0.81640625 23.62890625 C-0.90728516 24.80259766 -0.90728516 24.80259766 -1 26 C-1.66 26 -2.32 26 -3 26 C-2.95875 26.78375 -2.9175 27.5675 -2.875 28.375 C-3 31 -3 31 -5 33 C-7.68839385 33.26991906 -10.29141936 33.08737357 -13 33 C-13 33.66 -13 34.32 -13 35 C-4.09 35 4.82 35 14 35 C14 35.66 14 36.32 14 37 C5.09 37 -3.82 37 -13 37 C-12.34550877 47.53842578 -12.34550877 47.53842578 -11 58 C-14.875 56.25 -14.875 56.25 -16 54 C-17.485 54.495 -17.485 54.495 -19 55 C-19.33 55.99 -19.66 56.98 -20 58 C-20 57.01 -20 56.02 -20 55 C-21.98 55.495 -21.98 55.495 -24 56 C-20.66666667 47.66666667 -17.33333333 39.33333333 -14 31 C-10.04 30.505 -10.04 30.505 -6 30 C-4.35 23.07 -2.7 16.14 -1 9 C-15.52 9 -30.04 9 -45 9 C-45.33 11.31 -45.66 13.62 -46 16 C-46.33 16 -46.66 16 -47 16 C-47 13.36 -47 10.72 -47 8 C-44.69416631 6.84708316 -43.30133113 6.84602662 -40.73388672 6.79467773 C-39.85312469 6.77473251 -38.97236267 6.75478729 -38.06491089 6.73423767 C-37.11278717 6.71752518 -36.16066345 6.70081268 -35.1796875 6.68359375 C-34.20589142 6.66281265 -33.23209534 6.64203156 -32.22879028 6.62062073 C-29.11093353 6.55511402 -25.99299097 6.49623503 -22.875 6.4375 C-20.76431396 6.39431585 -18.65363667 6.3507016 -16.54296875 6.30664062 C-11.3620705 6.19943153 -6.18108644 6.09766722 -1 6 C-0.67 4.02 -0.34 2.04 0 0 Z " fill="#022F07" transform="translate(126,134)"/>
<path d="M0 0 C14.52 0 29.04 0 44 0 C40.6 20.4 40.6 20.4 39 22 C36.32941149 22.14115161 33.67567762 22.04247107 31 22 C30.67 22.66 30.34 23.32 30 24 C30 22.68 30 21.36 30 20 C32.64 20 35.28 20 38 20 C38 19.02417969 38 18.04835937 38 17.04296875 C38 12.36197917 38 7.68098958 38 3 C33.23112363 2.97524936 28.46228479 2.95711597 23.69335938 2.94506836 C22.07160796 2.94004495 20.44986105 2.93322506 18.828125 2.92456055 C16.49478031 2.91240771 14.1614956 2.90675172 11.828125 2.90234375 C11.10506165 2.89718246 10.38199829 2.89202118 9.63702393 2.88670349 C6.2798725 2.88633082 3.20893892 2.95092381 0 4 C-0.04898438 4.81984375 -0.09796875 5.6396875 -0.1484375 6.484375 C-0.22320312 7.56203125 -0.29796875 8.6396875 -0.375 9.75 C-0.44460937 10.81734375 -0.51421875 11.8846875 -0.5859375 12.984375 C-0.9728223 15.80206432 -1.55686166 17.5830366 -3 20 C-0.36 20 2.28 20 5 20 C5.96452932 24.243929 6.15853967 26.25095741 4 30 C3.690625 31.216875 3.38125 32.43375 3.0625 33.6875 C2.5365625 35.3271875 2.5365625 35.3271875 2 37 C0.515 37.495 0.515 37.495 -1 38 C-1 38.99 -1 39.98 -1 41 C-2.32 40.67 -3.64 40.34 -5 40 C-4.67 39.34 -4.34 38.68 -4 38 C-5.32 38 -6.64 38 -8 38 C-8 38.66 -8 39.32 -8 40 C-9.98 39.67 -11.96 39.34 -14 39 C-12.07688024 37.95831013 -10.24035183 37.06673652 -8.12890625 36.48046875 C-2.80384107 34.92019445 -0.64098561 32.83956451 2.08984375 28.03515625 C2.9846499 26.03432362 3.54517531 24.14006984 4 22 C1.36 22 -1.28 22 -4 22 C-3.90996975 20.3949779 -3.80187347 18.79097126 -3.6875 17.1875 C-3.62949219 16.29417969 -3.57148437 15.40085938 -3.51171875 14.48046875 C-2.78924737 9.56656037 -1.30683453 4.79172661 0 0 Z " fill="#24C54F" transform="translate(81,143)"/>
<path d="M0 0 C2.66804319 2.46280909 4.82053967 5.0679826 6.9375 8 C8.69712022 10.4018816 10.05906061 12.04543124 12.4375 13.875 C16.90269977 17.57784859 20.40545693 22.81091385 23 28 C23.16796875 30.05859375 23.16796875 30.05859375 23.1875 32.4375 C23.20167969 33.21996094 23.21585938 34.00242188 23.23046875 34.80859375 C23 37 23 37 21 40 C20.34 40 19.68 40 19 40 C19 40.66 19 41.32 19 42 C16.125 41.75 16.125 41.75 13 41 C10.81664018 37.83967917 10.59716975 34.70354077 10.3125 30.9375 C10.22613281 29.89464844 10.13976562 28.85179687 10.05078125 27.77734375 C10 25 10 25 11 22 C11.66790364 19.1284035 11.66790364 19.1284035 11 16 C9.29678844 14.23717604 7.51921616 12.82634021 5.53125 11.39453125 C5.0259375 10.93433594 4.520625 10.47414062 4 10 C4 9.01 4 8.02 4 7 C3.01 7 2.02 7 1 7 C0.67 4.69 0.34 2.38 0 0 Z " fill="#08140C" transform="translate(129,142)"/>
<path d="M0 0 C0.495 2.97 0.495 2.97 1 6 C0.34 6.33 -0.32 6.66 -1 7 C-1.28875 8.093125 -1.5775 9.18625 -1.875 10.3125 C-3.07656064 14.25094877 -4.14126961 15.22789781 -7 18 C-8.64572568 21.41804565 -9.92257675 24.73869652 -11 28.375 C-11.33 29.24125 -11.66 30.1075 -12 31 C-12.99 31.33 -13.98 31.66 -15 32 C-14.938125 33.11375 -14.87625 34.2275 -14.8125 35.375 C-14.9053125 37.169375 -14.9053125 37.169375 -15 39 C-15.99 39.66 -16.98 40.32 -18 41 C-19.1611984 43.23639384 -19.1611984 43.23639384 -20.0625 45.8125 C-20.38347656 46.66457031 -20.70445312 47.51664063 -21.03515625 48.39453125 C-21.35355469 49.25433594 -21.67195313 50.11414063 -22 51 C-22.66228784 52.66841153 -23.32767004 54.33560983 -24 56 C-24.66 56 -25.32 56 -26 56 C-26 58.31 -26 60.62 -26 63 C-26.639375 63.24492187 -27.27875 63.48984375 -27.9375 63.7421875 C-30.14711387 64.79573163 -30.14711387 64.79573163 -30.6875 66.8828125 C-30.790625 67.62273437 -30.89375 68.36265625 -31 69.125 C-31.86804575 73.99394752 -33.63725568 77.66830207 -36 82 C-36.66 82 -37.32 82 -38 82 C-35.92067937 75.36193561 -33.40157425 68.99978187 -30.625 62.625 C-30.22289307 61.69598877 -29.82078613 60.76697754 -29.40649414 59.80981445 C-28.27600657 57.20432064 -27.1394932 54.6015655 -26 52 C-25.29810547 50.39318359 -25.29810547 50.39318359 -24.58203125 48.75390625 C-22.61933602 44.35291388 -20.5165858 40.05083551 -18.31323242 35.76513672 C-13.80945283 26.9773277 -9.98912503 17.97969665 -6.32543945 8.80981445 C-5.92156006 7.81167725 -5.51768066 6.81354004 -5.1015625 5.78515625 C-4.74400879 4.88676025 -4.38645508 3.98836426 -4.01806641 3.06274414 C-3.02007792 1.04068066 -2.42419402 0 0 0 Z " fill="#1BC64D" transform="translate(223,98)"/>
<path d="M0 0 C3.9102275 -0.07531552 7.82016232 -0.12913851 11.73095703 -0.16479492 C13.69969568 -0.1869343 15.66823362 -0.22509352 17.63671875 -0.26367188 C25.88186932 -0.32645221 33.11900928 0.54893451 41 3 C41 3.66 41 4.32 41 5 C41.86044922 5.14308594 41.86044922 5.14308594 42.73828125 5.2890625 C45.5026308 6.15799448 47.02828523 7.45479774 49.1875 9.375 C49.88230469 9.98085937 50.57710938 10.58671875 51.29296875 11.2109375 C53 13 53 13 54 16 C54.66 16 55.32 16 56 16 C59.24959914 24.05335438 60.23178657 31.04837614 59.625 39.6875 C59.58117187 40.43322266 59.53734375 41.17894531 59.4921875 41.94726562 C59.26966784 45.41177315 58.90974695 48.65326493 58 52 C57.34 52 56.68 52 56 52 C55.97314062 49.85423363 55.95366912 47.70837355 55.9375 45.5625 C55.92589844 44.36753906 55.91429687 43.17257813 55.90234375 41.94140625 C56 39 56 39 57 38 C57.23287008 36.31816052 57.41264166 34.6287584 57.5625 32.9375 C57.64628906 32.01839844 57.73007812 31.09929687 57.81640625 30.15234375 C57.90728516 29.08693359 57.90728516 29.08693359 58 28 C57.34 28 56.68 28 56 28 C56 25.36 56 22.72 56 20 C55.01 19.67 54.02 19.34 53 19 C53 17.68 53 16.36 53 15 C52.01 14.67 51.02 14.34 50 14 C48.33333333 12.33333333 46.66666667 10.66666667 45 9 C44.071875 8.443125 43.14375 7.88625 42.1875 7.3125 C41.465625 6.879375 40.74375 6.44625 40 6 C40 5.34 40 4.68 40 4 C36.37 4 32.74 4 29 4 C28.67 3.34 28.34 2.68 28 2 C19.09 1.67 10.18 1.34 1 1 C0.67 3.97 0.34 6.94 0 10 C-1.5625 12.5625 -1.5625 12.5625 -3 14 C-2.88437394 12.60335892 -2.757008 11.20768801 -2.625 9.8125 C-2.55539062 9.03519531 -2.48578125 8.25789063 -2.4140625 7.45703125 C-1.96000475 4.76266968 -1.04481801 2.5167283 0 0 Z " fill="#1DBB4D" transform="translate(289,92)"/>
<path d="M0 0 C2.4375 2.1875 2.4375 2.1875 4 4 C3.01 4 2.02 4 1 4 C1 3.34 1 2.68 1 2 C-0.98 2 -2.96 2 -5 2 C-5 1.34 -5 0.68 -5 0 C-8.9813783 -1.3271261 -12.85045227 -1.06915913 -17 -1 C-17.33 -0.34 -17.66 0.32 -18 1 C-19.32 1 -20.64 1 -22 1 C-22 1.66 -22 2.32 -22 3 C-22.66 3 -23.32 3 -24 3 C-24 2.34 -24 1.68 -24 1 C-27.63 1.33 -31.26 1.66 -35 2 C-35 2.66 -35 3.32 -35 4 C-36.0725 4.598125 -37.145 5.19625 -38.25 5.8125 C-43.37861882 8.52021092 -43.37861882 8.52021092 -46.9375 12.875 C-48 15 -48 15 -50.3359375 17.1796875 C-53.32611511 20.3452421 -54.90382328 23.3332247 -56.6875 27.25 C-59.75246873 33.87623436 -59.75246873 33.87623436 -62 35 C-60.1668733 29.00067626 -57.92678249 23.55079437 -55 18 C-54.34 18 -53.68 18 -53 18 C-52.75894531 17.25878906 -52.51789062 16.51757812 -52.26953125 15.75390625 C-50.08726615 11.02006965 -45.9359625 8.28573319 -42 5 C-41.21625 4.2575 -40.4325 3.515 -39.625 2.75 C-28.45427173 -4.69715218 -11.89139019 -6.83122415 0 0 Z " fill="#20BE4C" transform="translate(102,94)"/>
<path d="M0 0 C0.33 0 0.66 0 1 0 C1.33 31.68 1.66 63.36 2 96 C2.99 95.505 2.99 95.505 4 95 C4.61272305 92.91193 4.61272305 92.91193 5 90.5 C5.4375 88.03125 5.4375 88.03125 6 86 C6.99 85.505 6.99 85.505 8 85 C7.38580826 93.59868438 5.19092979 101.69484752 3 110 C2.01 110 1.02 110 0 110 C0 73.7 0 37.4 0 0 Z " fill="#0D4F1C" transform="translate(261,94)"/>
<path d="M0 0 C0.33 0 0.66 0 1 0 C1.11056347 9.95071218 1.00025177 19.86963731 0.5625 29.8125 C0.52326416 30.74852051 0.48402832 31.68454102 0.44360352 32.64892578 C0.40162842 33.53435059 0.35965332 34.41977539 0.31640625 35.33203125 C0.27974854 36.11296143 0.24309082 36.8938916 0.20532227 37.69848633 C-0.01387292 40.15550541 -0.51622521 42.58112604 -1 45 C-6.28 45 -11.56 45 -17 45 C-15.125 36.25 -15.125 36.25 -14 34 C-13.34 34 -12.68 34 -12 34 C-11.87616943 33.28972656 -11.75233887 32.57945312 -11.62475586 31.84765625 C-10.98002297 28.9089441 -10.06976104 26.249807 -9.00390625 23.4375 C-8.61009766 22.39335937 -8.21628906 21.34921875 -7.81054688 20.2734375 C-7.39869141 19.19320312 -6.98683594 18.11296875 -6.5625 17 C-6.15451172 15.91976562 -5.74652344 14.83953125 -5.32617188 13.7265625 C-3.58875815 9.13502866 -1.83424396 4.55384251 0 0 Z M-1 8 C-3.03993514 12.92984325 -4.40652968 16.57960425 -4 22 C-4.99 22 -5.98 22 -7 22 C-7.64771508 23.91603157 -8.29309948 25.83285113 -8.9375 27.75 C-9.29714844 28.81734375 -9.65679687 29.8846875 -10.02734375 30.984375 C-10.77982119 33.31735725 -11.44977244 35.61374995 -12 38 C-12.66 38 -13.32 38 -14 38 C-14 39.65 -14 41.3 -14 43 C-10.37 43 -6.74 43 -3 43 C-0.87003827 38.74007653 -0.70126066 36.51793362 -0.5859375 31.828125 C-0.56657135 31.1457074 -0.5472052 30.46328979 -0.5272522 29.76019287 C-0.46768902 27.59025392 -0.42116554 25.42026123 -0.375 23.25 C-0.33679869 21.77471703 -0.2977457 20.29945585 -0.2578125 18.82421875 C-0.16200765 15.21634582 -0.07789084 11.60830917 0 8 C-0.33 8 -0.66 8 -1 8 Z " fill="#033A0C" transform="translate(235,122)"/>
<path d="M0 0 C1.9451 2.91765 2.45276317 4.62537285 3 8 C2.34 8 1.68 8 1 8 C1.020625 8.969375 1.04125 9.93875 1.0625 10.9375 C1 14 1 14 0 15 C-0.23363881 16.84891946 -0.41303635 18.70488031 -0.5625 20.5625 C-0.64628906 21.57441406 -0.73007813 22.58632812 -0.81640625 23.62890625 C-0.90728516 24.80259766 -0.90728516 24.80259766 -1 26 C-1.99 25.67 -2.98 25.34 -4 25 C-3.88325099 23.64509704 -3.75606577 22.29109304 -3.625 20.9375 C-3.55539063 20.18339844 -3.48578125 19.42929688 -3.4140625 18.65234375 C-2.90250577 15.37548507 -1.91112591 12.18894068 -1 9 C-15.52 9 -30.04 9 -45 9 C-45.33 11.31 -45.66 13.62 -46 16 C-46.33 16 -46.66 16 -47 16 C-47 13.36 -47 10.72 -47 8 C-44.69416631 6.84708316 -43.30133113 6.84602662 -40.73388672 6.79467773 C-39.85312469 6.77473251 -38.97236267 6.75478729 -38.06491089 6.73423767 C-37.11278717 6.71752518 -36.16066345 6.70081268 -35.1796875 6.68359375 C-34.20589142 6.66281265 -33.23209534 6.64203156 -32.22879028 6.62062073 C-29.11093353 6.55511402 -25.99299097 6.49623503 -22.875 6.4375 C-20.76431396 6.39431585 -18.65363667 6.3507016 -16.54296875 6.30664062 C-11.3620705 6.19943153 -6.18108644 6.09766722 -1 6 C-0.67 4.02 -0.34 2.04 0 0 Z " fill="#013A10" transform="translate(126,134)"/>
<path d="M0 0 C0 0.66 0 1.32 0 2 C0.66 2 1.32 2 2 2 C3.32 5.63 4.64 9.26 6 13 C13.26 13.33 20.52 13.66 28 14 C28 9.71 28 5.42 28 1 C28.33 1 28.66 1 29 1 C30.07671142 6.24896818 30 10.39122202 30 16 C21.09 16 12.18 16 3 16 C2.01 12.04 1.02 8.08 0 4 C-6.39872656 2.85277628 -6.39872656 2.85277628 -12 5 C-13.86591386 6.89099335 -15.3850325 8.87747129 -17 11 C-17.33 11 -17.66 11 -18 11 C-18 9.35 -18 7.7 -18 6 C-17.34 6 -16.68 6 -16 6 C-16 5.34 -16 4.68 -16 4 C-11.5357639 -1.23393198 -6.32318127 -0.39865941 0 0 Z " fill="#21C650" transform="translate(87,114)"/>
<path d="M0 0 C1.32 0.33 2.64 0.66 4 1 C-5.70423056 10.09771615 -15.86378822 13.55281163 -29.1875 13.25 C-35.44096021 12.69413687 -41.1557967 11.8442033 -45.6875 7.3125 C-46.120625 6.549375 -46.55375 5.78625 -47 5 C-45.35 5 -43.7 5 -42 5 C-41.67 6.32 -41.34 7.64 -41 9 C-39.02 8.67 -37.04 8.34 -35 8 C-35.66 7.34 -36.32 6.68 -37 6 C-33.28400809 5.79913557 -32.22791555 5.8480563 -29 8 C-29 8.66 -29 9.32 -29 10 C-27.72125 9.835 -26.4425 9.67 -25.125 9.5 C-20.0715842 8.92958264 -15.07937351 8.90456292 -10 9 C-10 8.34 -10 7.68 -10 7 C-9.44570312 6.74605469 -8.89140625 6.49210938 -8.3203125 6.23046875 C-7.59585938 5.88628906 -6.87140625 5.54210937 -6.125 5.1875 C-5.40570313 4.85105469 -4.68640625 4.51460937 -3.9453125 4.16796875 C-1.69457194 3.00532903 -1.69457194 3.00532903 0 0 Z " fill="#1CC249" transform="translate(93,194)"/>
<path d="M0 0 C2 1.5625 2 1.5625 3 4 C2.67272727 10.32727273 2.67272727 10.32727273 0 13 C-5.1239912 13.56933236 -5.1239912 13.56933236 -8 13 C-10.0625 10.875 -10.0625 10.875 -11 8 C-10.875 4.8125 -10.875 4.8125 -10 2 C-6.29584707 -0.46943529 -4.37855495 -0.46913089 0 0 Z " fill="#398351" transform="translate(331,192)"/>
<path d="M0 0 C0.66 0 1.32 0 2 0 C2.495 2.97 2.495 2.97 3 6 C3.66 6 4.32 6 5 6 C6.07284837 12.26311481 5.95132007 16.92922644 4 23 C3 24 3 24 0.40795898 24.11352539 C-0.71795654 24.10828857 -1.84387207 24.10305176 -3.00390625 24.09765625 C-4.21884766 24.09443359 -5.43378906 24.09121094 -6.68554688 24.08789062 C-7.96494141 24.07951172 -9.24433594 24.07113281 -10.5625 24.0625 C-11.84576172 24.05798828 -13.12902344 24.05347656 -14.45117188 24.04882812 C-17.63416022 24.03699545 -20.81705762 24.02051068 -24 24 C-28 17.5 -28 17.5 -28 13 C-28.66 12.67 -29.32 12.34 -30 12 C-30 11.34 -30 10.68 -30 10 C-30.99 9.67 -31.98 9.34 -33 9 C-31 8 -31 8 -28.5 8.5 C-26 10 -26 10 -24.6875 13.3125 C-24 17 -24 17 -24 22 C-15.09 22 -6.18 22 3 22 C2.01 14.74 1.02 7.48 0 0 Z " fill="#063D0F" transform="translate(114,108)"/>
<path d="M0 0 C-0.33 1.32 -0.66 2.64 -1 4 C-7.27 4 -13.54 4 -20 4 C-20 4.66 -20 5.32 -20 6 C-19.113125 6.268125 -18.22625 6.53625 -17.3125 6.8125 C-14.22224509 7.92032723 -11.77377061 9.27525337 -9 11 C-9.78841594 15.00064774 -10.58132108 19.00039333 -11.375 23 C-11.59671875 24.12535156 -11.8184375 25.25070313 -12.046875 26.41015625 C-13.22155305 32.31809583 -14.47187406 38.17312727 -16 44 C-16.33 44 -16.66 44 -17 44 C-17 41.03 -17 38.06 -17 35 C-16.34 35 -15.68 35 -15 35 C-14.93941406 34.2265625 -14.87882812 33.453125 -14.81640625 32.65625 C-14.0498817 23.12776025 -14.0498817 23.12776025 -13.375 18.5 C-12.89390093 14.60719527 -12.89390093 14.60719527 -14 11 C-14.99 10.67 -15.98 10.34 -17 10 C-17 9.34 -17 8.68 -17 8 C-18.98 7.34 -20.96 6.68 -23 6 C-23 5.34 -23 4.68 -23 4 C-21.68 3.67 -20.36 3.34 -19 3 C-19 2.34 -19 1.68 -19 1 C-16.77100213 0.83109082 -14.54179338 0.66496313 -12.3125 0.5 C-10.45044922 0.36078125 -10.45044922 0.36078125 -8.55078125 0.21875 C-5.68500671 0.04220063 -2.86900043 -0.04388528 0 0 Z " fill="#25CD53" transform="translate(317,113)"/>
<path d="M0 0 C8.91 0 17.82 0 27 0 C27 0.33 27 0.66 27 1 C19.41 1 11.82 1 4 1 C4 3.64 4 6.28 4 9 C3.34 9 2.68 9 2 9 C2.185625 10.2375 2.37125 11.475 2.5625 12.75 C2.94711223 15.76279577 3.0874594 18.10010827 2 21 C1.67 21 1.34 21 1 21 C1 19.02 1 17.04 1 15 C-0.32 15.33 -1.64 15.66 -3 16 C-3 18.97 -3 21.94 -3 25 C-4.98 25.99 -4.98 25.99 -7 27 C-6.85795259 25.41632253 -6.71119847 23.83306682 -6.5625 22.25 C-6.48128906 21.36828125 -6.40007812 20.4865625 -6.31640625 19.578125 C-6.03761535 17.30649548 -5.61209423 15.20148177 -5 13 C-4.34 13 -3.68 13 -3 13 C-2.86722656 12.39671875 -2.73445313 11.7934375 -2.59765625 11.171875 C-2.42105469 10.37265625 -2.24445313 9.5734375 -2.0625 8.75 C-1.88847656 7.96109375 -1.71445312 7.1721875 -1.53515625 6.359375 C-1.0527843 4.23271327 -0.52889301 2.11557202 0 0 Z " fill="#17D94B" transform="translate(290,93)"/>
<path d="M0 0 C2.97 0.495 2.97 0.495 6 1 C6.08139142 3.39652528 6.14067009 5.79025436 6.1875 8.1875 C6.21263672 8.86103516 6.23777344 9.53457031 6.26367188 10.22851562 C6.32931539 14.71415591 5.68855807 17.40396893 3 21 C2 22 2 22 -0.31665039 22.11352539 C-1.31688232 22.10828857 -2.31711426 22.10305176 -3.34765625 22.09765625 C-4.42724609 22.09443359 -5.50683594 22.09121094 -6.61914062 22.08789062 C-7.75544922 22.07951172 -8.89175781 22.07113281 -10.0625 22.0625 C-11.20267578 22.05798828 -12.34285156 22.05347656 -13.51757812 22.04882812 C-16.34510351 22.03699747 -19.1725264 22.0205141 -22 22 C-22.33 21.34 -22.66 20.68 -23 20 C-15.08 19.67 -7.16 19.34 1 19 C1 12.22645857 0.98586958 6.53138599 0 0 Z " fill="#062212" transform="translate(191,106)"/>
<path d="M0 0 C0.33 0 0.66 0 1 0 C0.88485851 2.04224637 0.75742674 4.08380159 0.625 6.125 C0.55539062 7.26195312 0.48578125 8.39890625 0.4140625 9.5703125 C0 13 0 13 -2 19 C5.26 19 12.52 19 20 19 C20.33 17.35 20.66 15.7 21 14 C21.33 13.34 21.66 12.68 22 12 C22.039992 10.00039988 22.04346799 7.99952758 22 6 C19.36 4.68 16.72 3.36 14 2 C14.33 1.34 14.66 0.68 15 0 C18.3 1.65 21.6 3.3 25 5 C24.25 15.375 24.25 15.375 22 21 C13.42 21 4.84 21 -4 21 C-2.81316886 13.87901319 -1.63238995 6.99595691 0 0 Z " fill="#24B84D" transform="translate(268,184)"/>
<path d="M0 0 C0.66 0 1.32 0 2 0 C2 0.66 2 1.32 2 2 C2.66 2 3.32 2 4 2 C5.41601562 4.68554688 5.41601562 4.68554688 6.83203125 7.37109375 C7.99019799 9.32267987 7.99019799 9.32267987 11 10 C11.433125 10.474375 11.86625 10.94875 12.3125 11.4375 C16.23561225 15.07001134 21.38405003 15.27436167 26.5 15.25 C28.12421875 15.25773438 28.12421875 15.25773438 29.78125 15.265625 C33.13886041 14.98854065 35.82726407 14.08703766 39 13 C42.375 13.375 42.375 13.375 45 14 C45 13.34 45 12.68 45 12 C46.32 12.33 47.64 12.66 49 13 C42.59760354 18.86886342 33.85937514 18.38398399 25.69140625 18.24609375 C17.27055929 17.68470395 9.95553849 15.20864888 4 9 C2.5 5.625 2.5 5.625 2 3 C1.34 3 0.68 3 0 3 C0 2.01 0 1.02 0 0 Z " fill="#20B449" transform="translate(115,189)"/>
<path d="M0 0 C1.65 0 3.3 0 5 0 C3.99660173 3.0845206 2.94984498 6.12988863 1.78125 9.15625 C-3.30975593 22.44253378 -6.54198903 37.13498084 -2 51 C-0.62493901 52.87890434 -0.62493901 52.87890434 1 54 C1.66 54.66 2.32 55.32 3 56 C1.35 56 -0.3 56 -2 56 C-6.46440616 49.77448688 -6.52195071 44.70445332 -6.3125 37.1875 C-6.30283203 36.15818359 -6.29316406 35.12886719 -6.28320312 34.06835938 C-6.07804234 19.96578559 -6.07804234 19.96578559 -5 15 C-4.34 14.67 -3.68 14.34 -3 14 C-0.65221302 9.58063627 -0.40576461 4.90120939 0 0 Z " fill="#1FCE51" transform="translate(64,125)"/>
<path d="M0 0 C0.33 0 0.66 0 1 0 C1 3.3 1 6.6 1 10 C0.34 10 -0.32 10 -1 10 C-0.98839844 10.556875 -0.97679687 11.11375 -0.96484375 11.6875 C-0.90323567 16.89778343 -1.25000656 21.8437951 -2 27 C-0.02 26.67 1.96 26.34 4 26 C3.67 24.68 3.34 23.36 3 22 C4.65 22 6.3 22 8 22 C8.103125 21.4225 8.20625 20.845 8.3125 20.25 C9.09792798 17.67950842 10.30504197 16.06342716 12 14 C11.70299316 19.94013673 9.08347422 23.87095129 5 28 C1.39152272 30.3408441 -1.66229205 31 -6 31 C-4.59250484 20.51786497 -2.38060702 10.29670316 0 0 Z " fill="#052107" transform="translate(307,126)"/>
<path d="M0 0 C0.33 0.66 0.66 1.32 1 2 C0.67 2.99 0.34 3.98 0 5 C-0.99 5.33 -1.98 5.66 -3 6 C-3.90002114 8.38701258 -4.58457161 10.599636 -5.1875 13.0625 C-5.36112061 13.7426416 -5.53474121 14.4227832 -5.71362305 15.12353516 C-6.87849092 19.91224579 -7.48925635 24.10743651 -7 29 C-6.67 29.33 -6.34 29.66 -6 30 C-5.855625 31.03125 -5.71125 32.0625 -5.5625 33.125 C-5.0082083 36.94345392 -4.12585988 40.32219105 -3 44 C-2.34 44 -1.68 44 -1 44 C0.06775224 45.96466413 1.06553465 47.96855359 2 50 C1.67 50.66 1.34 51.32 1 52 C-6.56194341 41.70785375 -11.51989815 32.04236926 -10 19 C-8.47387796 11.53527262 -5.77461578 5.19715421 0 0 Z " fill="#20BE4E" transform="translate(135,100)"/>
<path d="M0 0 C0.66 0 1.32 0 2 0 C3.65454409 8.06590246 3.88847721 14.6550986 0 22 C-0.515625 22.66 -1.03125 23.32 -1.5625 24 C-3.54905706 26.76390547 -4.07987237 29.74888236 -5 33 C-9.7878248 35.3939124 -14.77756744 35.08851581 -20 35 C-18.03355903 33.99269171 -16.08630654 33.03465988 -14.03515625 32.2109375 C-8.29939459 29.78033751 -5.49508863 26.6900192 -3 21 C-0.71302781 14.25217546 -0.45396951 7.06042052 0 0 Z " fill="#27C64F" transform="translate(321,123)"/>
<path d="M0 0 C0.66 0 1.32 0 2 0 C2 12.87 2 25.74 2 39 C1.34 39 0.68 39 0 39 C-3.05529192 25.87861238 -2.48800532 13.17309961 0 0 Z " fill="#15C54E" transform="translate(34,144)"/>
<path d="M0 0 C9.24 0 18.48 0 28 0 C28 0.33 28 0.66 28 1 C15.625 1.495 15.625 1.495 3 2 C1.02 6.29 -0.96 10.58 -3 15 C-12.24 15 -21.48 15 -31 15 C-31 14.01 -31 13.02 -31 12 C-30.25838623 12.00523682 -29.51677246 12.01047363 -28.75268555 12.01586914 C-25.39763229 12.03663614 -22.04259256 12.0496593 -18.6875 12.0625 C-17.52025391 12.07087891 -16.35300781 12.07925781 -15.15039062 12.08789062 C-14.03212891 12.09111328 -12.91386719 12.09433594 -11.76171875 12.09765625 C-10.2142395 12.10551147 -10.2142395 12.10551147 -8.63549805 12.11352539 C-5.89053726 12.11635 -5.89053726 12.11635 -3 11 C-2.01 7.37 -1.02 3.74 0 0 Z " fill="#27B64E" transform="translate(205,190)"/>
<path d="M0 0 C2.66666667 1.33333333 5.33333333 2.66666667 8 4 C8 5.32 8 6.64 8 8 C8.66 8 9.32 8 10 8 C10 8.66 10 9.32 10 10 C10.66 10 11.32 10 12 10 C12 9.34 12 8.68 12 8 C12.99 8 13.98 8 15 8 C15.08807085 12.29153445 15.14074921 16.58283224 15.1875 20.875 C15.22520508 22.68097656 15.22520508 22.68097656 15.26367188 24.5234375 C15.32370314 31.88727301 14.64912403 38.10491054 12 45 C10.80840352 40.88652032 11.19696468 37.15133563 11.5625 32.9375 C12.07756041 25.98270014 11.76172387 19.79349686 10 13 C9.81179688 12.24332031 9.62359375 11.48664063 9.4296875 10.70703125 C9.28789062 10.14371094 9.14609375 9.58039063 9 9 C8.34 9 7.68 9 7 9 C5.2734375 7.28515625 5.2734375 7.28515625 3.375 5.0625 C2.74335938 4.33160156 2.11171875 3.60070312 1.4609375 2.84765625 C0 1 0 1 0 0 Z " fill="#051A05" transform="translate(336,99)"/>
<path d="M0 0 C4.15909625 4.15909625 4.13649048 10.34102711 4.1875 15.9375 C4.15373961 20.84626039 4.15373961 20.84626039 3 22 C1.21928754 22.08726223 -0.5648314 22.10699041 -2.34765625 22.09765625 C-3.42724609 22.09443359 -4.50683594 22.09121094 -5.61914062 22.08789062 C-6.75544922 22.07951172 -7.89175781 22.07113281 -9.0625 22.0625 C-10.20267578 22.05798828 -11.34285156 22.05347656 -12.51757812 22.04882812 C-15.34510351 22.03699747 -18.1725264 22.0205141 -21 22 C-21.20496094 21.37351562 -21.40992188 20.74703125 -21.62109375 20.1015625 C-22.02521484 18.87566406 -22.02521484 18.87566406 -22.4375 17.625 C-22.70433594 16.81289062 -22.97117188 16.00078125 -23.24609375 15.1640625 C-23.95179729 12.98968201 -23.95179729 12.98968201 -25 11 C-22 12 -22 12 -21 14 C-20.960008 15.99960012 -20.95653201 18.00047242 -21 20 C-20.01 19.814375 -19.02 19.62875 -18 19.4375 C-11.04696734 18.5305827 -3.95760479 19.45115982 3 20 C3 19.34 3 18.68 3 18 C2.34 18 1.68 18 1 18 C0.67 12.06 0.34 6.12 0 0 Z " fill="#22BC4D" transform="translate(189,104)"/>
<path d="M0 0 C0.66 0 1.32 0 2 0 C0.297732 9.8990585 -4.05484972 19.38460108 -7.984375 28.57421875 C-9.06494039 31.0703464 -9.06494039 31.0703464 -10 34 C-10.66 34 -11.32 34 -12 34 C-12.99 37.63 -13.98 41.26 -15 45 C-9.72 45 -4.44 45 1 45 C1 45.33 1 45.66 1 46 C-4.61 46 -10.22 46 -16 46 C-15.48263876 40.39525319 -14.71036463 35.3591425 -13 30 C-12.34 30 -11.68 30 -11 30 C-11 29.01 -11 28.02 -11 27 C-10.34 27 -9.68 27 -9 27 C-8.814375 25.91332031 -8.814375 25.91332031 -8.625 24.8046875 C-8.01010357 22.04533976 -7.12438849 19.71274704 -6 17.125 C-4.29935074 13.00893584 -3.38480678 9.42527794 -3 5 C-2.34 5 -1.68 5 -1 5 C-0.67 3.35 -0.34 1.7 0 0 Z " fill="#22C552" transform="translate(233,122)"/>
<path d="M0 0 C5.91191767 1.0093518 8.07933751 4.19346636 11.38671875 8.80859375 C12.84688056 11.01219684 12.84688056 11.01219684 14.6953125 12.2734375 C16.90710279 15.20041747 16.30712153 18.67553458 16.1875 22.1875 C16.16719727 23.31188477 16.16719727 23.31188477 16.14648438 24.45898438 C16.11118539 26.30629767 16.05737917 28.15324066 16 30 C16.99 30.33 17.98 30.66 19 31 C18.625 32.9375 18.625 32.9375 18 35 C17.01 35.495 17.01 35.495 16 36 C16 35.01 16 34.02 16 33 C12.37 33 8.74 33 5 33 C5 32.34 5 31.68 5 31 C6.98 31.33 8.96 31.66 11 32 C11 31.34 11 30.68 11 30 C11.48339844 29.54882812 11.96679688 29.09765625 12.46484375 28.6328125 C14.36449731 26.61231584 14.48879876 25.61668602 14.5625 22.875 C14.30186825 14.8736053 8.53260517 9.23354543 3 4 C1.97186389 2.68824014 0.95915568 1.3630107 0 0 Z " fill="#1FBA4E" transform="translate(137,152)"/>
<path d="M0 0 C5.24534049 4.2819106 9.64647725 8.82581319 14 14 C15.08294706 15.25033466 16.16625923 16.50035323 17.25 17.75 C17.73082031 18.31847656 18.21164063 18.88695312 18.70703125 19.47265625 C19.76731102 20.72513174 20.84945774 21.95906519 21.9375 23.1875 C23 25 23 25 22.6875 27.25 C22.460625 27.8275 22.23375 28.405 22 29 C21.01 28.34 20.02 27.68 19 27 C19 25.68 19 24.36 19 23 C18.01 23.66 17.02 24.32 16 25 C14.68 25 13.36 25 12 25 C11.91113816 21.80097361 12.08941469 19.07322544 13 16 C12.01 15.34 11.02 14.68 10 14 C10 13.34 10 12.68 10 12 C8.68 11.34 7.36 10.68 6 10 C6 9.34 6 8.68 6 8 C5.34 8 4.68 8 4 8 C2.21694476 5.36107824 1.00940379 3.02821137 0 0 Z " fill="#11E144" transform="translate(154,130)"/>
<path d="M0 0 C0.495 0.99 0.495 0.99 1 2 C-0.32 2.33 -1.64 2.66 -3 3 C-3 3.66 -3 4.32 -3 5 C-12.85993413 8.86664084 -21.26158195 11.11526597 -32 10 C-32.33 9.67 -32.66 9.34 -33 9 C-34.99612093 9 -36.99236617 9.00258336 -38.98828125 9.03125 C-41.12332452 8.99808428 -42.97358321 8.67547226 -45 8 C-44.67 7.01 -44.34 6.02 -44 5 C-44.66 4.67 -45.32 4.34 -46 4 C-45.67 3.01 -45.34 2.02 -45 1 C-44.608125 1.46019531 -44.21625 1.92039063 -43.8125 2.39453125 C-38.53600207 7.06832575 -29.66678851 7.49695052 -22.90625 7.29296875 C-15.3932692 6.53561181 -8.37687356 5.14385686 -2 1 C-1.34 0.67 -0.68 0.34 0 0 Z " fill="#032109" transform="translate(92,199)"/>
<path d="M0 0 C0.99 0 1.98 0 3 0 C3 5.61 3 11.22 3 17 C2.34 16.34 1.68 15.68 1 15 C0.01 15.33 -0.98 15.66 -2 16 C-2.33 16.99 -2.66 17.98 -3 19 C-3 18.01 -3 17.02 -3 16 C-4.32 16.33 -5.64 16.66 -7 17 C-5.49637741 13.21283842 -3.94512999 9.44754813 -2.375 5.6875 C-1.92898437 4.61886719 -1.48296875 3.55023438 -1.0234375 2.44921875 C-0.68570313 1.64097656 -0.34796875 0.83273438 0 0 Z " fill="#082411" transform="translate(109,173)"/>
<path d="M0 0 C1.15540624 0.92567635 2.30497928 1.85896075 3.4375 2.8125 C0.42718256 3.74673645 -0.42900268 3.85699911 -3.5625 2.8125 C-3.5625 1.8225 -3.5625 0.8325 -3.5625 -0.1875 C-4.2225 -0.1875 -4.8825 -0.1875 -5.5625 -0.1875 C-5.5625 -0.8475 -5.5625 -1.5075 -5.5625 -2.1875 C-6.8825 -2.1875 -8.2025 -2.1875 -9.5625 -2.1875 C-9.5625 -2.8475 -9.5625 -3.5075 -9.5625 -4.1875 C-22.83980867 -3.95272503 -22.83980867 -3.95272503 -35.6171875 -0.7109375 C-37.94271807 -0.08519233 -39.30728471 -0.42901952 -41.5625 -1.1875 C-40.16971983 -1.83989158 -38.77310788 -2.48410552 -37.375 -3.125 C-36.59769531 -3.48464844 -35.82039062 -3.84429687 -35.01953125 -4.21484375 C-23.47351564 -8.78552401 -9.90412774 -7.31142415 0 0 Z " fill="#23AC49" transform="translate(182.5625,96.1875)"/>
<path d="M0 0 C0.33 0 0.66 0 1 0 C1.38091404 6.34856737 1.38091404 6.34856737 -0.49609375 9.55859375 C-2.60952111 14.39477429 -2.36116739 18.72305441 -2.25 23.9375 C-2.24484375 24.90107422 -2.2396875 25.86464844 -2.234375 26.85742188 C-2.18935765 30.97369589 -2.07986543 34.94635139 -1.359375 39.00390625 C-1 42 -1 42 -3 45 C-8.54739322 35.38451841 -6.0341682 22.29378521 -4 12 C-2.83266982 7.93216622 -1.49366442 3.95893578 0 0 Z " fill="#022607" transform="translate(65,133)"/>
<path d="M0 0 C0.66 0 1.32 0 2 0 C2 11.22 2 22.44 2 34 C1.34 34 0.68 34 0 34 C0.061875 35.670625 0.061875 35.670625 0.125 37.375 C0 41 0 41 -2 43 C-1.01 21.715 -1.01 21.715 0 0 Z " fill="#24C34E" transform="translate(236,123)"/>
<path d="M0 0 C0.33 0.99 0.66 1.98 1 3 C1.66 3 2.32 3 3 3 C3 4.65 3 6.3 3 8 C3.99 8 4.98 8 6 8 C6 7.01 6 6.02 6 5 C8.5 3.3125 8.5 3.3125 11 2 C13.66514806 13.52164009 13.66514806 13.52164009 11 19 C9.33333333 17.33333333 7.66666667 15.66666667 6 14 C5.278125 13.360625 4.55625 12.72125 3.8125 12.0625 C0.56615274 8.3683807 0 4.8234656 0 0 Z " fill="#092510" transform="translate(152,120)"/>
<path d="M0 0 C1.19109375 -0.00386719 1.19109375 -0.00386719 2.40625 -0.0078125 C4.5 0.125 4.5 0.125 6.5 1.125 C8.19859761 4.52219523 9.16117079 7.3468812 8.5 11.125 C6.02552136 14.00074545 3.6557398 16.02117347 0.5 18.125 C-2.96167429 18.03623912 -4.2476479 17.35689112 -6.8125 15 C-8.92502947 11.40087571 -8.94898063 9.24065573 -8.5 5.125 C-6.76953798 0.42803165 -4.78502241 -0.01553579 0 0 Z M-6.5 4.125 C-7.57838759 7.59124583 -7.69195389 9.5363414 -6.5625 13 C-4.24354632 15.389225 -3.68901588 15.51718423 -0.5 15.6875 C2.298336 15.49166802 3.28037784 15.29138042 5.5625 13.5625 C6.89274773 10.1038559 6.35607025 7.6809841 5.5 4.125 C3.56397953 1.75301043 3.56397953 1.75301043 0.0625 1.875 C-3.60420618 1.83690353 -3.60420618 1.83690353 -6.5 4.125 Z " fill="#021F07" transform="translate(327.5,189.875)"/>
<path d="M0 0 C1.55932272 3.11864545 0.65549131 5.66295335 0 9 C-0.66 9.66 -1.32 10.32 -2 11 C-2.6425235 13.06874034 -2.6425235 13.06874034 -3 15 C-3.66 15 -4.32 15 -5 15 C-5 17.31 -5 19.62 -5 22 C-5.9590625 22.36738281 -5.9590625 22.36738281 -6.9375 22.7421875 C-9.14711387 23.79573163 -9.14711387 23.79573163 -9.6875 25.8828125 C-9.790625 26.62273437 -9.89375 27.36265625 -10 28.125 C-10.86804575 32.99394752 -12.63725568 36.66830207 -15 41 C-15.66 41 -16.32 41 -17 41 C-14.92065815 34.36186784 -12.40108835 28.00004492 -9.625 21.625 C-9.22869385 20.70759033 -8.8323877 19.79018066 -8.42407227 18.8449707 C-5.68827154 12.53007784 -2.90723707 6.23814184 0 0 Z " fill="#17B241" transform="translate(202,139)"/>
<path d="M0 0 C0 1.32 0 2.64 0 4 C-2.64 4 -5.28 4 -8 4 C-7.896875 4.9075 -7.79375 5.815 -7.6875 6.75 C-7.62740905 12.57882223 -10.61555756 17.81383768 -13 23 C-13.33 23 -13.66 23 -14 23 C-14.2779632 19.20116966 -14.03548402 17.07806484 -12.4375 13.5625 C-10.77996116 9.45468635 -11.24526033 7.27685814 -12 3 C-8.62446616 -0.37553384 -4.59080647 -0.1311659 0 0 Z " fill="#08E34F" transform="translate(119,159)"/>
<path d="M0 0 C1.4453125 1.828125 1.4453125 1.828125 2 4 C1.625 6.25 1.625 6.25 1 8 C0.53851563 7.59007813 0.07703125 7.18015625 -0.3984375 6.7578125 C-8.56632757 0.01042505 -16.39702202 -0.54234388 -26.734375 0.4375 C-31.02571648 1.17667844 -34.85689323 2.56002787 -38.85546875 4.2578125 C-39.91701172 4.62519531 -39.91701172 4.62519531 -41 5 C-41.66 4.67 -42.32 4.34 -43 4 C-30.93255138 -3.91926316 -13.74061565 -4.22175437 0 0 Z " fill="#012A05" transform="translate(106,91)"/>
<path d="M0 0 C2.97 0 5.94 0 9 0 C10.09039672 3.92542817 9.95963655 5.49328197 8 9 C7.690625 10.216875 7.38125 11.43375 7.0625 12.6875 C6.5365625 14.3271875 6.5365625 14.3271875 6 16 C5.01 16.33 4.02 16.66 3 17 C3 17.99 3 18.98 3 20 C1.68 19.67 0.36 19.34 -1 19 C-0.67 18.34 -0.34 17.68 0 17 C-1.32 17 -2.64 17 -4 17 C-4 17.66 -4 18.32 -4 19 C-5.98 18.67 -7.96 18.34 -10 18 C-8.07688024 16.95831013 -6.24035183 16.06673652 -4.12890625 15.48046875 C1.19615893 13.92019445 3.35901439 11.83956451 6.08984375 7.03515625 C6.9846499 5.03432362 7.54517531 3.14006984 8 1 C5.36 1 2.72 1 0 1 C0 0.67 0 0.34 0 0 Z " fill="#14BA43" transform="translate(77,164)"/>
<path d="M0 0 C0.66 0 1.32 0 2 0 C4.90770954 5.68567876 5.3864851 10.10569223 5.1875 16.4375 C5.17396484 17.26443359 5.16042969 18.09136719 5.14648438 18.94335938 C5.11146992 20.9625264 5.05767562 22.98135318 5 25 C5.66 25 6.32 25 7 25 C7.33 23.35 7.66 21.7 8 20 C8.66 20 9.32 20 10 20 C10 18.35 10 16.7 10 15 C10.99 15 11.98 15 13 15 C11.26838325 20.78517413 9.36270315 25.95594528 6 31 C5.01 31.33 4.02 31.66 3 32 C3 23.09 3 14.18 3 5 C2.34 5 1.68 5 1 5 C0.67 3.35 0.34 1.7 0 0 Z " fill="#002604" transform="translate(176,154)"/>
<path d="M0 0 C1.75570312 0.02707031 1.75570312 0.02707031 3.546875 0.0546875 C4.88492188 0.08949219 4.88492188 0.08949219 6.25 0.125 C6.25 0.455 6.25 0.785 6.25 1.125 C2.29 1.125 -1.67 1.125 -5.75 1.125 C-6.183125 2.8265625 -6.183125 2.8265625 -6.625 4.5625 C-6.99625 5.738125 -7.3675 6.91375 -7.75 8.125 C-8.74 8.62 -8.74 8.62 -9.75 9.125 C-9.75 11.105 -9.75 13.085 -9.75 15.125 C-8.1 14.795 -6.45 14.465 -4.75 14.125 C-4.42 15.115 -4.09 16.105 -3.75 17.125 C-4.41 17.785 -5.07 18.445 -5.75 19.125 C-8.47869407 19.09212417 -11.0466618 18.56102229 -13.75 18.125 C-13.43954268 16.2080014 -13.12655329 14.29141277 -12.8125 12.375 C-12.63847656 11.30765625 -12.46445313 10.2403125 -12.28515625 9.140625 C-12.10855469 8.14546875 -11.93195313 7.1503125 -11.75 6.125 C-11.64558594 5.37734375 -11.54117188 4.6296875 -11.43359375 3.859375 C-10.75 2.125 -10.75 2.125 -9.109375 0.8828125 C-5.99275146 -0.11822221 -3.26693548 -0.06533871 0 0 Z " fill="#13DE4D" transform="translate(91.75,144.875)"/>
<path d="M0 0 C0.556875 0.40992188 1.11375 0.81984375 1.6875 1.2421875 C13.24374393 9.40183271 25.27625603 9.20780952 39 7 C39 7.66 39 8.32 39 9 C37.02 9 35.04 9 33 9 C33 9.66 33 10.32 33 11 C30.43721301 11.05420701 27.87558517 11.09377007 25.3125 11.125 C24.59126953 11.14175781 23.87003906 11.15851563 23.12695312 11.17578125 C18.89647841 11.21441572 15.82483323 10.76480298 12 9 C9.63746499 8.48557705 7.27382032 8.06656207 4.890625 7.66015625 C4.26671875 7.44230469 3.6428125 7.22445312 3 7 C2.67 6.01 2.34 5.02 2 4 C1.34 3.67 0.68 3.34 0 3 C0 2.01 0 1.02 0 0 Z " fill="#012707" transform="translate(120,198)"/>
<path d="M0 0 C1.31355469 -0.01417969 2.62710938 -0.02835937 3.98046875 -0.04296875 C7.64893573 0.1776628 10.37550439 0.98073265 13.8125 2.1875 C14.4725 1.8575 15.1325 1.5275 15.8125 1.1875 C16.1425 2.1775 16.4725 3.1675 16.8125 4.1875 C17.9675 4.64125 19.1225 5.095 20.3125 5.5625 C21.4675 6.09875 22.6225 6.635 23.8125 7.1875 C24.53125 9.7890625 24.53125 9.7890625 24.8125 12.1875 C24.26722656 11.78917969 23.72195312 11.39085938 23.16015625 10.98046875 C22.40605469 10.45066406 21.65195313 9.92085937 20.875 9.375 C20.14410156 8.85292969 19.41320312 8.33085938 18.66015625 7.79296875 C11.48338814 3.7468073 4.90157342 2.75336589 -3.25 3 C-4.5484082 3.02030273 -4.5484082 3.02030273 -5.87304688 3.04101562 C-7.97814174 3.0759067 -10.08290974 3.12969335 -12.1875 3.1875 C-11.548125 2.878125 -10.90875 2.56875 -10.25 2.25 C-6.56293417 0.35060245 -4.29446286 0.00407058 0 0 Z " fill="#012307" transform="translate(162.1875,87.8125)"/>
<path d="M0 0 C1.66674321 2.91824244 2.2432008 4.97594379 2.1953125 8.328125 C2.18886719 9.12734375 2.18242187 9.9265625 2.17578125 10.75 C2.15902344 11.575 2.14226562 12.4 2.125 13.25 C2.11146484 14.51070312 2.11146484 14.51070312 2.09765625 15.796875 C2.07415817 17.86470604 2.03828908 19.93238995 2 22 C1.34 22 0.68 22 0 22 C-0.12375 23.11375 -0.2475 24.2275 -0.375 25.375 C-1 29 -1 29 -3 31 C-3.054348 28.9377952 -3.09294961 26.87517184 -3.125 24.8125 C-3.14820313 23.66394531 -3.17140625 22.51539063 -3.1953125 21.33203125 C-3.0007166 18.01222513 -2.25111542 16.03300707 -1 13 C-0.71878758 10.73703593 -0.51295111 8.46369338 -0.375 6.1875 C-0.30023438 5.02605469 -0.22546875 3.86460937 -0.1484375 2.66796875 C-0.09945312 1.78753906 -0.05046875 0.90710938 0 0 Z " fill="#15B745" transform="translate(178,159)"/>
<path d="M0 0 C0.33 0 0.66 0 1 0 C1 1.65 1 3.3 1 5 C1.99 4.67 2.98 4.34 4 4 C3.125 8.75 3.125 8.75 2 11 C1.34 11 0.68 11 0 11 C-0.103125 12.03125 -0.20625 13.0625 -0.3125 14.125 C-0.99127797 17.95083945 -2.11158795 20.63370025 -4 24 C-4.33 24 -4.66 24 -5 24 C-5.22036864 20.14354879 -4.60355101 17.50776784 -3 14 C-3.66 14 -4.32 14 -5 14 C-4.731875 13.360625 -4.46375 12.72125 -4.1875 12.0625 C-2.64635858 8.08797739 -1.32390688 4.05115505 0 0 Z " fill="#034111" transform="translate(178,181)"/>
<path d="M0 0 C0 0.66 0 1.32 0 2 C0.66 2 1.32 2 2 2 C3.4783226 4.95664519 3.06032783 7.74229737 3 11 C1.79371992 8.66785852 0.8345262 6.50357861 0 4 C-4.6824501 2.88513093 -7.64086897 2.86680822 -12 5 C-13.86591386 6.89099335 -15.3850325 8.87747129 -17 11 C-17.33 11 -17.66 11 -18 11 C-18 9.35 -18 7.7 -18 6 C-17.34 6 -16.68 6 -16 6 C-16 5.34 -16 4.68 -16 4 C-11.5357639 -1.23393198 -6.32318127 -0.39865941 0 0 Z " fill="#1BBE4C" transform="translate(87,114)"/>
<path d="M0 0 C0.66 0.33 1.32 0.66 2 1 C2 1.66 2 2.32 2 3 C-10.21 3 -22.42 3 -35 3 C-33 1 -33 1 -29.85131836 0.78881836 C-28.51407078 0.79590817 -27.17685317 0.81363019 -25.83984375 0.83984375 C-24.78223595 0.8476461 -24.78223595 0.8476461 -23.70326233 0.85560608 C-21.44780033 0.87344427 -19.19278915 0.90462686 -16.9375 0.9375 C-14.6786844 0.96507285 -12.41993117 0.9897766 -10.161026 1.00868225 C-8.75425979 1.02098604 -7.34752873 1.03863448 -5.94090271 1.06199646 C-4.29389284 1.07895895 -2.64649325 1.04460057 -1 1 C-0.67 0.67 -0.34 0.34 0 0 Z " fill="#002404" transform="translate(259,89)"/>
<path d="M0 0 C3.63958596 6.06597659 3.10161995 12.90162353 2.625 19.6875 C2.55925781 20.80608398 2.55925781 20.80608398 2.4921875 21.94726562 C2.26966784 25.41177315 1.90974695 28.65326493 1 32 C0.34 32 -0.32 32 -1 32 C-1.02685938 29.85423363 -1.04633088 27.70837355 -1.0625 25.5625 C-1.07410156 24.36753906 -1.08570313 23.17257813 -1.09765625 21.94140625 C-1 19 -1 19 0 18 C0.08631874 16.65732587 0.10706473 15.31025678 0.09765625 13.96484375 C0.09443359 13.15595703 0.09121094 12.34707031 0.08789062 11.51367188 C0.07532227 10.2384668 0.07532227 10.2384668 0.0625 8.9375 C0.05573242 7.65649414 0.05573242 7.65649414 0.04882812 6.34960938 C0.03700373 4.23304337 0.01906769 2.11651315 0 0 Z " fill="#189C3D" transform="translate(346,112)"/>
<path d="M0 0 C0.99 0 1.98 0 3 0 C4.02930907 6.48464716 4.04859613 11.71389681 2 18 C1 19 1 19 -0.84765625 19.09765625 C-2.8984375 19.06510417 -4.94921875 19.03255208 -7 19 C-7.33 19.66 -7.66 20.32 -8 21 C-8 19.68 -8 18.36 -8 17 C-5.36 17 -2.72 17 0 17 C0 16.02417969 0 15.04835937 0 14.04296875 C0 9.36197917 0 4.68098958 0 0 Z " fill="#17C645" transform="translate(119,146)"/>
<path d="M0 0 C0.66 0 1.32 0 2 0 C2.33 0.99 2.66 1.98 3 3 C3.66 2.01 4.32 1.02 5 0 C6.32 0 7.64 0 9 0 C8.67 2.64 8.34 5.28 8 8 C4.71303767 8.79953138 3.28976808 9.09658936 0 8 C0 5.36 0 2.72 0 0 Z " fill="#051310" transform="translate(142,172)"/>
<path d="M0 0 C0.33 0 0.66 0 1 0 C1.02685938 2.14576637 1.04633088 4.29162645 1.0625 6.4375 C1.07410156 7.63246094 1.08570313 8.82742187 1.09765625 10.05859375 C1 13 1 13 0 14 C-1.78071246 14.08726223 -3.5648314 14.10699041 -5.34765625 14.09765625 C-6.42724609 14.09443359 -7.50683594 14.09121094 -8.61914062 14.08789062 C-9.75544922 14.07951172 -10.89175781 14.07113281 -12.0625 14.0625 C-13.20267578 14.05798828 -14.34285156 14.05347656 -15.51757812 14.04882812 C-18.34510351 14.03699747 -21.1725264 14.0205141 -24 14 C-24.33 13.34 -24.66 12.68 -25 12 C-17.08 11.67 -9.16 11.34 -1 11 C-0.67 7.37 -0.34 3.74 0 0 Z " fill="#03350E" transform="translate(193,114)"/>
<path d="M0 0 C-0.33 1.32 -0.66 2.64 -1 4 C-7.6 4.33 -14.2 4.66 -21 5 C-21 4.34 -21 3.68 -21 3 C-20.34 3 -19.68 3 -19 3 C-19 2.34 -19 1.68 -19 1 C-16.77100213 0.83109082 -14.54179338 0.66496313 -12.3125 0.5 C-10.45044922 0.36078125 -10.45044922 0.36078125 -8.55078125 0.21875 C-5.68500671 0.04220063 -2.86900043 -0.04388528 0 0 Z " fill="#16BB44" transform="translate(317,113)"/>
<path d="M0 0 C3.89610738 3.72671141 3.89610738 3.72671141 4.16796875 7.05859375 C4.17441406 7.84363281 4.18085938 8.62867188 4.1875 9.4375 C4.20167969 10.21996094 4.21585938 11.00242188 4.23046875 11.80859375 C4 14 4 14 2 17 C1.34 17 0.68 17 0 17 C0 17.66 0 18.32 0 19 C-5.54425612 18.51789077 -5.54425612 18.51789077 -7.375 16.4375 C-8.28294945 12.89649716 -8.12174442 9.65233264 -8 6 C-7.67 6 -7.34 6 -7 6 C-6.67 8.97 -6.34 11.94 -6 15 C-3.36 15 -0.72 15 2 15 C2.19392201 9.47322267 1.7479503 5.24385089 0 0 Z " fill="#05380D" transform="translate(148,165)"/>
<path d="M0 0 C4.03848316 -0.02481344 8.07693647 -0.0429136 12.11547852 -0.05493164 C13.48788222 -0.05994454 14.86028062 -0.06675658 16.23266602 -0.07543945 C18.21107651 -0.08763857 20.1895268 -0.09272248 22.16796875 -0.09765625 C23.35672607 -0.10289307 24.5454834 -0.10812988 25.77026367 -0.11352539 C28.64737487 -0.01239479 31.20673413 0.33449807 34 1 C34 1.33 34 1.66 34 2 C23.11 1.67 12.22 1.34 1 1 C0.67 3.97 0.34 6.94 0 10 C-1.5625 12.5625 -1.5625 12.5625 -3 14 C-2.88437394 12.60335892 -2.757008 11.20768801 -2.625 9.8125 C-2.55539062 9.03519531 -2.48578125 8.25789063 -2.4140625 7.45703125 C-1.96000475 4.76266968 -1.04481801 2.5167283 0 0 Z " fill="#1F913E" transform="translate(289,92)"/>
<path d="M0 0 C1.25110528 3.75331583 0.56792453 4.65969889 -0.984375 8.21875 C-1.42523438 9.23324219 -1.86609375 10.24773437 -2.3203125 11.29296875 C-2.79210937 12.35128906 -3.26390625 13.40960938 -3.75 14.5 C-4.20632812 15.55832031 -4.66265625 16.61664063 -5.1328125 17.70703125 C-8.910202 26.29895477 -8.910202 26.29895477 -12 29 C-12 27.68 -12 26.36 -12 25 C-11.34 25 -10.68 25 -10 25 C-10 23.02 -10 21.04 -10 19 C-9.34 19 -8.68 19 -8 19 C-8 18.01 -8 17.02 -8 16 C-7.34 16 -6.68 16 -6 16 C-6.0928125 14.63875 -6.0928125 14.63875 -6.1875 13.25 C-5.97583449 9.58113122 -5.29198801 8.73275494 -3 6 C-2.30686092 4.34416775 -1.63525576 2.67889021 -1 1 C-0.67 0.67 -0.34 0.34 0 0 Z " fill="#054112" transform="translate(215,108)"/>
<path d="M0 0 C0.33 0 0.66 0 1 0 C1 3.3 1 6.6 1 10 C0.34 10 -0.32 10 -1 10 C-0.98839844 10.63808594 -0.97679687 11.27617187 -0.96484375 11.93359375 C-0.95582031 12.75988281 -0.94679688 13.58617187 -0.9375 14.4375 C-0.92589844 15.26121094 -0.91429687 16.08492187 -0.90234375 16.93359375 C-1 19 -1 19 -2 20 C-2.25910191 21.47112304 -2.45873776 22.95301569 -2.625 24.4375 C-2.72039062 25.24058594 -2.81578125 26.04367188 -2.9140625 26.87109375 C-3.17384017 29.05475766 -3.17384017 29.05475766 -2 31 C-3.32 31 -4.64 31 -6 31 C-4.59250484 20.51786497 -2.38060702 10.29670316 0 0 Z " fill="#054C11" transform="translate(307,126)"/>
<path d="M0 0 C0.66 0 1.32 0 2 0 C2.33 1.98 2.66 3.96 3 6 C3.66 6 4.32 6 5 6 C5.75612577 11.23471686 6.2063366 15.77254141 5 21 C4.34 21 3.68 21 3 21 C2.01 14.07 1.02 7.14 0 0 Z " fill="#044318" transform="translate(114,108)"/>
<path d="M0 0 C2.4375 2.1875 2.4375 2.1875 4 4 C3.01 4 2.02 4 1 4 C1 3.34 1 2.68 1 2 C-0.98 2 -2.96 2 -5 2 C-5 1.34 -5 0.68 -5 0 C-7.73249341 -0.75277515 -10.28100683 -1.16641703 -13.109375 -1.31640625 C-13.86347656 -1.35830078 -14.61757812 -1.40019531 -15.39453125 -1.44335938 C-16.56048828 -1.50233398 -16.56048828 -1.50233398 -17.75 -1.5625 C-18.93916016 -1.62727539 -18.93916016 -1.62727539 -20.15234375 -1.69335938 C-22.10137815 -1.79902991 -24.05066748 -1.89997966 -26 -2 C-26 -2.33 -26 -2.66 -26 -3 C-17.29286966 -4.72833264 -7.82158053 -4.49324839 0 0 Z " fill="#21B34A" transform="translate(102,94)"/>
<path d="M0 0 C5.61 0 11.22 0 17 0 C17 0.33 17 0.66 17 1 C14.03 1 11.06 1 8 1 C8 1.99 8 2.98 8 4 C10.97 4.495 10.97 4.495 14 5 C13.67 7.64 13.34 10.28 13 13 C12.67 13 12.34 13 12 13 C12 11.02 12 9.04 12 7 C10.700625 6.5978125 10.700625 6.5978125 9.375 6.1875 C6.08208036 5.02888013 3.08872125 3.61790161 0 2 C0 1.34 0 0.68 0 0 Z " fill="#03480F" transform="translate(281,182)"/>
<path d="M0 0 C1.99727594 3.25675218 2.12911292 4.9987897 1.25 8.6875 C1.04890625 9.56019531 0.8478125 10.43289062 0.640625 11.33203125 C0.42921875 12.21246094 0.2178125 13.09289062 0 14 C-0.33358206 15.62494896 -0.66693104 17.24994579 -1 18.875 C-1.61867227 21.8689319 -2.54981326 24.30506963 -4 27 C-4.33 27 -4.66 27 -5 27 C-4.39828638 20.67250629 -3.37848091 14.62404348 -1.9375 8.4375 C-1.75123047 7.61958984 -1.56496094 6.80167969 -1.37304688 5.95898438 C-0.91979313 3.97164104 -0.46053788 1.98566799 0 0 Z " fill="#17AB43" transform="translate(282,120)"/>
<path d="M0 0 C4.75 0.75 4.75 0.75 7 3 C7.36796448 5.87012296 7.37509409 7.40774618 5.8125 9.875 C4 11 4 11 1.4375 10.8125 C-1 10 -1 10 -3 8 C-3.125 5.375 -3.125 5.375 -3 3 C-2.34 2.67 -1.68 2.34 -1 2 C-1 3.98 -1 5.96 -1 8 C-0.38125 7.814375 0.2375 7.62875 0.875 7.4375 C3 7 3 7 5 8 C4.67 6.35 4.34 4.7 4 3 C2.68 2.67 1.36 2.34 0 2 C0 1.34 0 0.68 0 0 Z " fill="#0A5414" transform="translate(325,193)"/>
<path d="M0 0 C0.33 0 0.66 0 1 0 C0.97679687 1.134375 0.95359375 2.26875 0.9296875 3.4375 C0.91091186 4.95832668 0.8927136 6.47916057 0.875 8 C0.85824219 8.74378906 0.84148438 9.48757812 0.82421875 10.25390625 C0.77535809 15.87288223 0.85114783 22.31393479 4.5 26.875 C4.995 27.24625 5.49 27.6175 6 28 C6.66 28.66 7.32 29.32 8 30 C6.35 30 4.7 30 3 30 C-2.45659755 23.17925306 -1.50130299 15.28382647 -1 7 C-0.7211574 4.65349225 -0.37382329 2.33411614 0 0 Z " fill="#22B14D" transform="translate(59,151)"/>
<path d="M0 0 C-4.75844569 4.75844569 -12.89218224 5.18512504 -19.32421875 5.29296875 C-21.44551346 5.27338757 -23.56671965 5.23814938 -25.6875 5.1875 C-26.78255859 5.17396484 -27.87761719 5.16042969 -29.00585938 5.14648438 C-31.67111414 5.11156837 -34.33527504 5.06253717 -37 5 C-37 4.67 -37 4.34 -37 4 C-36.01773437 3.97812622 -36.01773437 3.97812622 -35.015625 3.95581055 C-32.00986327 3.88071957 -29.00513903 3.78426329 -26 3.6875 C-24.97003906 3.66494141 -23.94007813 3.64238281 -22.87890625 3.61914062 C-14.95457426 3.34153664 -7.66471312 -0.57485348 0 0 Z " fill="#29CD56" transform="translate(319,176)"/>
<path d="M0 0 C0.66 0 1.32 0 2 0 C1.39828638 6.32749371 0.37848091 12.37595652 -1.0625 18.5625 C-1.24876953 19.38041016 -1.43503906 20.19832031 -1.62695312 21.04101562 C-2.08020687 23.02835896 -2.53946212 25.01433201 -3 27 C-3.33 27 -3.66 27 -4 27 C-4.30977485 20.7586104 -4.26133446 15.68295776 -1.734375 9.92578125 C-0.49914894 6.68659803 -0.30700474 3.43845311 0 0 Z " fill="#012B07" transform="translate(283,106)"/>
<path d="M0 0 C0.33 0.66 0.66 1.32 1 2 C0.29541627 3.69740625 -0.41444074 5.39451463 -1.2109375 7.05078125 C-3.16342726 11.87401091 -3.12634886 16.68003379 -3.0625 21.8125 C-3.05798828 22.50537109 -3.05347656 23.19824219 -3.04882812 23.91210938 C-3.03713156 25.60811068 -3.01919924 27.30406703 -3 29 C-4.62270241 26.13806263 -5.24953589 24.09653384 -5.23046875 20.8125 C-5.22853516 20.03132813 -5.22660156 19.25015625 -5.22460938 18.4453125 C-5.21236328 17.63835937 -5.20011719 16.83140625 -5.1875 16 C-5.18685547 15.19304687 -5.18621094 14.38609375 -5.18554688 13.5546875 C-5.15801978 9.84770559 -5.0100235 6.58671688 -4 3 C-3.01 3 -2.02 3 -1 3 C-0.67 2.01 -0.34 1.02 0 0 Z " fill="#024013" transform="translate(129,105)"/>
<path d="M0 0 C0.97353743 3.02878312 1.24612776 5.02846457 0 8 C-0.639375 8.433125 -1.27875 8.86625 -1.9375 9.3125 C-4.86270382 11.70584858 -5.00979571 14.43526455 -6 18 C-6.99 18.33 -7.98 18.66 -9 19 C-8.57533503 17.22604492 -8.1347591 15.45589369 -7.6875 13.6875 C-7.32205078 12.20830078 -7.32205078 12.20830078 -6.94921875 10.69921875 C-5.99420501 7.98352126 -5.27819477 6.71596675 -3 5 C-2.34 5 -1.68 5 -1 5 C-0.67 3.35 -0.34 1.7 0 0 Z " fill="#19D04E" transform="translate(188,175)"/>
<path d="M0 0 C4.60585517 3.75988177 8.57123921 7.63696367 12.421875 12.1640625 C14.18445531 14.2145891 16.04971072 16.12772229 18 18 C17.67 18.66 17.34 19.32 17 20 C15.8274869 19.04882866 14.66212985 18.08882991 13.5 17.125 C12.8503125 16.59132812 12.200625 16.05765625 11.53125 15.5078125 C11.0259375 15.01023438 10.520625 14.51265625 10 14 C10 13.34 10 12.68 10 12 C8.68 11.34 7.36 10.68 6 10 C6 9.34 6 8.68 6 8 C5.34 8 4.68 8 4 8 C2.21694476 5.36107824 1.00940379 3.02821137 0 0 Z " fill="#1FBA4A" transform="translate(154,130)"/>
<path d="M0 0 C3.12492251 -0.05791844 6.24970766 -0.09356746 9.375 -0.125 C10.26445312 -0.14175781 11.15390625 -0.15851563 12.0703125 -0.17578125 C12.92109375 -0.18222656 13.771875 -0.18867187 14.6484375 -0.1953125 C15.82672119 -0.21102295 15.82672119 -0.21102295 17.02880859 -0.22705078 C19 0 19 0 21 2 C17.04 2 13.08 2 9 2 C9 3.32 9 4.64 9 6 C5.9168649 4.80100302 2.93720508 3.52299523 0 2 C0 1.34 0 0.68 0 0 Z " fill="#023307" transform="translate(297,117)"/>
<path d="M0 0 C8.19788853 0.34372698 8.19788853 0.34372698 11.0625 2.6875 C12.23506168 5.57981882 12.21079572 7.90832951 12 11 C11.34 11 10.68 11 10 11 C8.64560332 8.29120665 8.93498549 5.99066732 9 3 C7.54077307 3.11409593 6.08259402 3.24165544 4.625 3.375 C3.81289062 3.44460937 3.00078125 3.51421875 2.1640625 3.5859375 C-0.20334191 3.82892588 -0.20334191 3.82892588 -2 6 C-1.49396008 3.83125748 -1.00016187 2.00032373 0 0 Z " fill="#04360B" transform="translate(155,114)"/>
<path d="M0 0 C0.33 0.66 0.66 1.32 1 2 C0.67 2.99 0.34 3.98 0 5 C-0.99 5.33 -1.98 5.66 -3 6 C-3.88040196 8.54698226 -4.5759039 10.95191274 -5.1875 13.5625 C-5.36474609 14.27341797 -5.54199219 14.98433594 -5.72460938 15.71679688 C-6.16122323 17.47505269 -6.58210434 19.23720155 -7 21 C-7.66 20.34 -8.32 19.68 -9 19 C-8.87522106 11.76282171 -6.35136617 6.48510614 -1.3359375 1.26953125 C-0.89507812 0.85058594 -0.45421875 0.43164062 0 0 Z " fill="#1FC74A" transform="translate(135,100)"/>
<path d="M0 0 C0.66 0 1.32 0 2 0 C1.74438677 2.3431213 1.40729228 4.67843403 1 7 C-3.7878248 9.3939124 -8.77756744 9.08851581 -14 9 C-11.98776845 7.98486076 -9.97264007 6.98724924 -7.9296875 6.03515625 C-7.25164062 5.71417969 -6.57359375 5.39320313 -5.875 5.0625 C-4.85019531 4.58490234 -4.85019531 4.58490234 -3.8046875 4.09765625 C-1.68186406 2.98064823 -1.68186406 2.98064823 0 0 Z " fill="#18CF51" transform="translate(315,149)"/>
<path d="M0 0 C2.66804319 2.46280909 4.82053967 5.0679826 6.9375 8 C9.31554221 11.25099441 11.81360738 13.52169463 15 16 C16.3125 18.25 16.3125 18.25 17 20 C16.01 19.67 15.02 19.34 14 19 C14 18.34 14 17.68 14 17 C13.46375 16.773125 12.9275 16.54625 12.375 16.3125 C9.15069671 14.53064818 6.70350705 12.51917702 4 10 C4 9.01 4 8.02 4 7 C3.01 7 2.02 7 1 7 C0.67 4.69 0.34 2.38 0 0 Z " fill="#043C0E" transform="translate(129,142)"/>
<path d="M0 0 C0.28571429 7.42857143 0.28571429 7.42857143 -2 11 C-2.66 11 -3.32 11 -4 11 C-4 10.34 -4 9.68 -4 9 C-4.66 9 -5.32 9 -6 9 C-5.63668534 5.73016809 -4.2451062 0 0 0 Z " fill="#130E0B" transform="translate(180,141)"/>
<path d="M0 0 C0.33 1.32 0.66 2.64 1 4 C0.01 4.66 -0.98 5.32 -2 6 C-2 5.01 -2 4.02 -2 3 C-5.63 3 -9.26 3 -13 3 C-13 2.34 -13 1.68 -13 1 C-10.03 1.495 -10.03 1.495 -7 2 C-7 1.34 -7 0.68 -7 0 C-4.3333581 -1.33332095 -2.83319697 -0.67102033 0 0 Z " fill="#1ACF4A" transform="translate(155,182)"/>
<path d="M0 0 C0.66 0 1.32 0 2 0 C1.85704109 1.39613065 1.71048442 2.79189308 1.5625 4.1875 C1.48128906 4.96480469 1.40007813 5.74210938 1.31640625 6.54296875 C1 9 1 9 0.5 11.34375 C-0.12479087 14.66295149 -0.34206862 17.94304887 -0.5625 21.3125 C-0.64628906 22.56675781 -0.73007812 23.82101563 -0.81640625 25.11328125 C-0.87699219 26.06589844 -0.93757813 27.01851562 -1 28 C-1.33 28 -1.66 28 -2 28 C-2.23889655 18.40432207 -1.78831859 9.46850826 0 0 Z " fill="#198237" transform="translate(34,144)"/>
<path d="M0 0 C0.33 0 0.66 0 1 0 C0.32545897 7.8246759 -1.26876958 15.34556614 -3 23 C-3.33 23 -3.66 23 -4 23 C-4.39109989 15.3083689 -3.12516386 8.39953428 -1 1 C-0.67 0.67 -0.34 0.34 0 0 Z " fill="#04390C" transform="translate(278,133)"/>
<path d="M0 0 C0.99 0 1.98 0 3 0 C2.54636829 1.58468677 2.08688548 3.16769924 1.625 4.75 C1.36976562 5.63171875 1.11453125 6.5134375 0.8515625 7.421875 C0 10 0 10 -1.0625 12.0625 C-2.0918882 14.18990228 -2.3907416 15.90741599 -2.625 18.25 C-2.74875 19.4875 -2.8725 20.725 -3 22 C-3.33 22 -3.66 22 -4 22 C-4.25287193 15.93107371 -3.69832609 10.83799592 -2 5 C-1.34 5 -0.68 5 0 5 C0 3.35 0 1.7 0 0 Z " fill="#053C10" transform="translate(39,122)"/>
<path d="M0 0 C1.66666667 0 3.33333333 0 5 0 C3.63560848 5.15436796 0.27426385 8.06648401 -4 11 C-4.66 11 -5.32 11 -6 11 C-6 10.01 -6 9.02 -6 8 C-4.68 7.67 -3.36 7.34 -2 7 C-1.34 4.69 -0.68 2.38 0 0 Z " fill="#1CCF4B" transform="translate(170,190)"/>
<path d="M0 0 C1 2 1 2 0.3125 5.375 C-0.99366787 8.98251125 -2.09973607 10.58311339 -5 13 C-5.99 12.67 -6.98 12.34 -8 12 C-5.36 8.04 -2.72 4.08 0 0 Z " fill="#053610" transform="translate(341,155)"/>
<path d="M0 0 C2 2 2 2 2 5 C2.66 5 3.32 5 4 5 C4 5.66 4 6.32 4 7 C3.34 7 2.68 7 2 7 C2 7.66 2 8.32 2 9 C-0.64738916 10.4606285 -1.89448334 11 -5 11 C-5 10.01 -5 9.02 -5 8 C-3.68 8 -2.36 8 -1 8 C-1.020625 7.05125 -1.04125 6.1025 -1.0625 5.125 C-1 2 -1 2 0 0 Z " fill="#140D08" transform="translate(313,135)"/>
<path d="M0 0 C0.33 0.99 0.66 1.98 1 3 C2.65 3.33 4.3 3.66 6 4 C6 5.65 6 7.3 6 9 C4.02 9 2.04 9 0 9 C-1.125 2.25 -1.125 2.25 0 0 Z " fill="#259D45" transform="translate(324,192)"/>
<path d="M0 0 C0.33 0 0.66 0 1 0 C0.88638398 2.79256219 0.7596411 5.58344118 0.625 8.375 C0.5940625 9.1690625 0.563125 9.963125 0.53125 10.78125 C0.2265625 16.7734375 0.2265625 16.7734375 -2 19 C-2.69748583 20.31747324 -3.36959957 21.64914193 -4 23 C-3.32545897 15.1753241 -1.73123042 7.65443386 0 0 Z " fill="#17B645" transform="translate(276,147)"/>
<path d="M0 0 C0.99 0 1.98 0 3 0 C3.22304441 1.74818591 3.4278645 3.49870323 3.625 5.25 C3.74101562 6.22453125 3.85703125 7.1990625 3.9765625 8.203125 C4.00112537 11.13429393 3.5312717 12.54528964 2 15 C1.61866701 13.0085944 1.28674418 11.00720923 1 9 C1.33 8.67 1.66 8.34 2 8 C1.34 7.67 0.68 7.34 0 7 C-1.26229508 2.52459016 -1.26229508 2.52459016 0 0 Z " fill="#092415" transform="translate(270,150)"/>
<path d="M0 0 C0.33 0 0.66 0 1 0 C1.042721 1.66611905 1.04063832 3.33382885 1 5 C0 6 0 6 -3.81640625 6.09765625 C-5.39846682 6.09098089 -6.98051159 6.07901875 -8.5625 6.0625 C-9.36880859 6.05798828 -10.17511719 6.05347656 -11.00585938 6.04882812 C-13.00393756 6.03700518 -15.00197783 6.01906914 -17 6 C-17 5.34 -17 4.68 -17 4 C-11.72 4 -6.44 4 -1 4 C-0.67 2.68 -0.34 1.36 0 0 Z " fill="#18DA4E" transform="translate(235,164)"/>
<path d="M0 0 C1.55932272 3.11864545 0.65549131 5.66295335 0 9 C-0.66 9.66 -1.32 10.32 -2 11 C-2.6425235 13.06874034 -2.6425235 13.06874034 -3 15 C-3.66 15 -4.32 15 -5 15 C-5.33 16.32 -5.66 17.64 -6 19 C-7.38496444 14.84510669 -5.74896471 12.21477434 -4.125 8.375 C-3.70154297 7.33472656 -3.70154297 7.33472656 -3.26953125 6.2734375 C-1.16380295 1.16380295 -1.16380295 1.16380295 0 0 Z " fill="#19A13F" transform="translate(202,139)"/>
<path d="M0 0 C0.33 0 0.66 0 1 0 C1.3012492 16.33440102 1.3012492 16.33440102 -1.5625 20 C-2.036875 20.33 -2.51125 20.66 -3 21 C-2.83371094 20.30003906 -2.66742188 19.60007813 -2.49609375 18.87890625 C-1.79994717 14.83906348 -2.03137093 10.92491411 -2.16015625 6.83984375 C-1.99894039 3.98121136 -1.47714736 2.4155704 0 0 Z " fill="#051505" transform="translate(234,130)"/>
<path d="M0 0 C2.18139884 3.55912442 2.35244379 6.68735352 2.5625 10.8125 C2.84216011 15.60167945 3.21166892 20.2700135 4 25 C2 24 2 24 1 21 C0.92970879 18.42734182 0.90629168 15.88358569 0.9375 13.3125 C0.94201172 12.61060547 0.94652344 11.90871094 0.95117188 11.18554688 C0.96293073 9.45699462 0.98086546 7.72848635 1 6 C0.34 6 -0.32 6 -1 6 C-0.67 4.02 -0.34 2.04 0 0 Z " fill="#003D0B" transform="translate(111,167)"/>
<path d="M0 0 C0.33 0 0.66 0 1 0 C1.33 3.63 1.66 7.26 2 11 C2.66 11 3.32 11 4 11 C4.66 13.64 5.32 16.28 6 19 C5.01 18.67 4.02 18.34 3 18 C3 16.68 3 15.36 3 14 C2.34 13.67 1.68 13.34 1 13 C-0.32229189 10.35541621 -0.09677194 8.32238699 -0.0625 5.375 C-0.05347656 4.37210938 -0.04445313 3.36921875 -0.03515625 2.3359375 C-0.02355469 1.56507813 -0.01195313 0.79421875 0 0 Z " fill="#053511" transform="translate(32,172)"/>
<path d="M0 0 C0.33 0 0.66 0 1 0 C1 5.61 1 11.22 1 17 C0.34 16.67 -0.32 16.34 -1 16 C-1.484375 13.671875 -1.484375 13.671875 -1.75 10.75 C-1.84796875 9.79609375 -1.9459375 8.8421875 -2.046875 7.859375 C-1.99635887 4.77789104 -1.31181571 2.76490387 0 0 Z " fill="#011D02" transform="translate(31,157)"/>
<path d="M0 0 C1.65 0 3.3 0 5 0 C4.67 0.66 4.34 1.32 4 2 C3.01 2 2.02 2 1 2 C0.8453125 3.36125 0.8453125 3.36125 0.6875 4.75 C-0.00649813 8.03071844 -0.70085668 9.60889095 -3 12 C-3.66 12 -4.32 12 -5 12 C-3.68938409 7.76570244 -2.05643741 3.92592596 0 0 Z " fill="#06380D" transform="translate(207,192)"/>
<path d="M0 0 C0.66 0 1.32 0 2 0 C1.43174347 5.54050113 -0.62886517 10.03715966 -3 15 C-3.33 15 -3.66 15 -4 15 C-4.21278058 10.53160785 -3.59138085 7.17737474 -2 3 C-1.34 3 -0.68 3 0 3 C0 2.01 0 1.02 0 0 Z " fill="#1DC750" transform="translate(109,167)"/>
<path d="M0 0 C0.66 0 1.32 0 2 0 C1.37099631 3.6054232 0.41162002 6.84919935 -0.9375 10.25 C-1.27652344 11.12140625 -1.61554688 11.9928125 -1.96484375 12.890625 C-3 15 -3 15 -5 16 C-4.34 12.37 -3.68 8.74 -3 5 C-2.34 5 -1.68 5 -1 5 C-0.67 3.35 -0.34 1.7 0 0 Z " fill="#22C954" transform="translate(233,122)"/>
<path d="M0 0 C2.31 0 4.62 0 7 0 C9.10865385 3.47307692 9.10865385 3.47307692 8.55859375 6.140625 C8.37425781 6.75421875 8.18992187 7.3678125 8 8 C6.66102417 7.04956626 5.32894573 6.08940853 4 5.125 C3.2575 4.59132813 2.515 4.05765625 1.75 3.5078125 C1.1725 3.01023437 0.595 2.51265625 0 2 C0 1.34 0 0.68 0 0 Z " fill="#062F13" transform="translate(99,91)"/>
<path d="M0 0 C0.33 0.66 0.66 1.32 1 2 C-0.32 2.33 -1.64 2.66 -3 3 C-3 3.66 -3 4.32 -3 5 C-8.82254243 6.96818336 -13.83381819 8.40214229 -20 8 C-20 7.67 -20 7.34 -20 7 C-18.67935547 6.72736328 -18.67935547 6.72736328 -17.33203125 6.44921875 C-15.58986328 6.07216797 -15.58986328 6.07216797 -13.8125 5.6875 C-12.66394531 5.44386719 -11.51539062 5.20023438 -10.33203125 4.94921875 C-7.09270914 4.02641069 -4.79068314 2.84888954 -2 1 C-1.34 0.67 -0.68 0.34 0 0 Z " fill="#03390E" transform="translate(92,199)"/>
<path d="M0 0 C0.33 0 0.66 0 1 0 C1 1.65 1 3.3 1 5 C1.99 4.67 2.98 4.34 4 4 C3.25 8.75 3.25 8.75 1 11 C0.67 10.34 0.34 9.68 0 9 C-0.99 10.485 -0.99 10.485 -2 12 C-2.66 11.67 -3.32 11.34 -4 11 C-2.68 7.37 -1.36 3.74 0 0 Z " fill="#09591A" transform="translate(178,181)"/>
<path d="M0 0 C0.33 0 0.66 0 1 0 C1.04241723 2.33294775 1.04092937 4.66702567 1 7 C0 8 0 8 -1.84765625 8.09765625 C-3.8984375 8.06510417 -5.94921875 8.03255208 -8 8 C-8.33 8.66 -8.66 9.32 -9 10 C-9 8.68 -9 7.36 -9 6 C-6.36 6 -3.72 6 -1 6 C-1.020625 5.195625 -1.04125 4.39125 -1.0625 3.5625 C-1 1 -1 1 0 0 Z " fill="#1AB348" transform="translate(120,157)"/>
<path d="M0 0 C0.99 0.33 1.98 0.66 3 1 C3 2.65 3 4.3 3 6 C3.66 6 4.32 6 5 6 C5.66 7.65 6.32 9.3 7 11 C7.66 11 8.32 11 9 11 C9.33 12.32 9.66 13.64 10 15 C4.98494408 11.3526866 2.1912071 7.83892246 0 2 C0 1.34 0 0.68 0 0 Z " fill="#22C452" transform="translate(36,184)"/>
<path d="M0 0 C-0.5479083 4.2829452 -2.02432804 6.85135641 -4.5625 10.3125 C-5.20316406 11.19550781 -5.84382813 12.07851562 -6.50390625 12.98828125 C-6.99761719 13.65214844 -7.49132812 14.31601563 -8 15 C-8.33 14.34 -8.66 13.68 -9 13 C-8.360625 12.13375 -7.72125 11.2675 -7.0625 10.375 C-5.00912271 7.01492806 -4.53355633 4.8238204 -4 1 C-2 0 -2 0 0 0 Z " fill="#1CC14F" transform="translate(343,150)"/>
<path d="M0 0 C1.31092543 3.9327763 0.31783226 5.25253203 -1.3125 9 C-1.76238281 10.051875 -2.21226562 11.10375 -2.67578125 12.1875 C-4 15 -4 15 -6 18 C-6 15.69 -6 13.38 -6 11 C-5.34 11 -4.68 11 -4 11 C-3.896875 10.29875 -3.79375 9.5975 -3.6875 8.875 C-2.90640997 5.60862353 -1.57941257 2.9528148 0 0 Z " fill="#1FA246" transform="translate(228,138)"/>
<path d="M0 0 C3 3 3 3 3.29296875 5.91796875 C3.25816406 6.99691406 3.22335938 8.07585937 3.1875 9.1875 C3.16042969 10.27417969 3.13335937 11.36085938 3.10546875 12.48046875 C3.07066406 13.31191406 3.03585938 14.14335938 3 15 C2.01 15.495 2.01 15.495 1 16 C0.67 10.72 0.34 5.44 0 0 Z " fill="#001B06" transform="translate(193,110)"/>
<path d="M0 0 C6.14689273 0.36881356 8.69027374 1.90050429 13 6 C9.98968256 6.93423645 9.13349732 7.04449911 6 6 C6 5.01 6 4.02 6 3 C5.34 3 4.68 3 4 3 C4 2.34 4 1.68 4 1 C2.68 0.67 1.36 0.34 0 0 Z " fill="#1DC74F" transform="translate(173,93)"/>
<path d="M0 0 C0.66 0 1.32 0 2 0 C1.67566492 5.35152885 -1.49704824 8.28280043 -5 12 C-5.33 10.68 -5.66 9.36 -6 8 C-5.01 8 -4.02 8 -3 8 C-2.87625 7.236875 -2.7525 6.47375 -2.625 5.6875 C-2 3 -2 3 0 0 Z " fill="#1DB54A" transform="translate(103,182)"/>
<path d="M0 0 C1.305239 3.91571701 0.32239848 5.03892997 -1.4375 8.6875 C-1.91058594 9.68136719 -2.38367188 10.67523438 -2.87109375 11.69921875 C-3.42990234 12.83810547 -3.42990234 12.83810547 -4 14 C-4.33 14 -4.66 14 -5 14 C-4.67 10.7 -4.34 7.4 -4 4 C-3.01 3.67 -2.02 3.34 -1 3 C-0.67 2.01 -0.34 1.02 0 0 Z " fill="#012804" transform="translate(199,143)"/>
<path d="M0 0 C0.66 0 1.32 0 2 0 C2.06058594 0.71027344 2.12117188 1.42054687 2.18359375 2.15234375 C2.26738281 3.07144531 2.35117188 3.99054688 2.4375 4.9375 C2.51871094 5.85402344 2.59992188 6.77054687 2.68359375 7.71484375 C2.76044976 9.96159732 2.76044976 9.96159732 4 11 C4.04063832 12.66617115 4.042721 14.33388095 4 16 C3.71125 15.38125 3.4225 14.7625 3.125 14.125 C2.06279958 11.86674235 2.06279958 11.86674235 0 10 C-0.1953125 7.6171875 -0.1953125 7.6171875 -0.125 4.875 C-0.10695313 3.96492188 -0.08890625 3.05484375 -0.0703125 2.1171875 C-0.04710938 1.41851562 -0.02390625 0.71984375 0 0 Z " fill="#15CE53" transform="translate(125,119)"/>
<path d="M0 0 C0.66 0 1.32 0 2 0 C2.08090971 1.62418745 2.13914995 3.24951745 2.1875 4.875 C2.22230469 5.77992187 2.25710938 6.68484375 2.29296875 7.6171875 C2.19628906 8.40351563 2.09960938 9.18984375 2 10 C1.01 10.66 0.02 11.32 -1 12 C-1.02712066 10.56260487 -1.04645067 9.12506137 -1.0625 7.6875 C-1.07410156 6.88699219 -1.08570313 6.08648437 -1.09765625 5.26171875 C-1 3 -1 3 0 0 Z " fill="#12DC4B" transform="translate(345,120)"/>
<path d="M0 0 C1.65 0.33 3.3 0.66 5 1 C4.278125 1.70125 3.55625 2.4025 2.8125 3.125 C0.00145957 5.92805452 -2.47964687 8.93470565 -5 12 C-5.66 12.66 -6.32 13.32 -7 14 C-6.58682778 9.17965738 -4.61980085 7.09007389 -1 4 C-0.34 4 0.32 4 1 4 C0.67 2.68 0.34 1.36 0 0 Z " fill="#05330E" transform="translate(55,98)"/>
<path d="M0 0 C0.66 0 1.32 0 2 0 C2 1.98 2 3.96 2 6 C3.65 6 5.3 6 7 6 C6.67 6.99 6.34 7.98 6 9 C3.03 8.505 3.03 8.505 0 8 C0 5.36 0 2.72 0 0 Z " fill="#160A11" transform="translate(142,172)"/>
<path d="M0 0 C0.33 0 0.66 0 1 0 C1.33 3.96 1.66 7.92 2 12 C0.02 12.99 0.02 12.99 -2 14 C-1.85795259 12.41632253 -1.71119847 10.83306682 -1.5625 9.25 C-1.48128906 8.36828125 -1.40007812 7.4865625 -1.31640625 6.578125 C-1.03761535 4.30649548 -0.61209423 2.20148177 0 0 Z " fill="#1BAC3F" transform="translate(285,106)"/>
<path d="M0 0 C3.89610738 3.72671141 3.89610738 3.72671141 4.16796875 7.05859375 C4.17441406 7.84363281 4.18085938 8.62867188 4.1875 9.4375 C4.20167969 10.21996094 4.21585938 11.00242188 4.23046875 11.80859375 C4 14 4 14 2 17 C1.34 17 0.68 17 0 17 C0 16.34 0 15.68 0 15 C0.66 15 1.32 15 2 15 C2.19392201 9.47322267 1.7479503 5.24385089 0 0 Z " fill="#022C04" transform="translate(148,165)"/>
<path d="M0 0 C2 2 2 2 2 5 C2.99 5 3.98 5 5 5 C4.67 6.98 4.34 8.96 4 11 C3.34 9.68 2.68 8.36 2 7 C1.01 7.495 1.01 7.495 0 8 C-0.38063221 5.6739143 -0.71269945 3.33944736 -1 1 C-0.67 0.67 -0.34 0.34 0 0 Z " fill="#13D748" transform="translate(340,139)"/>
<path d="M0 0 C0.99 0 1.98 0 3 0 C3 2.31 3 4.62 3 7 C0.03 6.67 -2.94 6.34 -6 6 C-4 4 -4 4 -1 3 C-0.67 2.01 -0.34 1.02 0 0 Z " fill="#15C648" transform="translate(161,108)"/>
<path d="M0 0 C1.33333333 2.66666667 2.66666667 5.33333333 4 8 C2.02 8 0.04 8 -2 8 C-2.33 7.34 -2.66 6.68 -3 6 C-2.06553465 3.96855359 -1.06775224 1.96466413 0 0 Z " fill="#1AD64A" transform="translate(178,195)"/>
<path d="M0 0 C-1 3 -1 3 -3 4 C-5.6723621 4.13415472 -8.32250488 4.04318541 -11 4 C-11 3.34 -11 2.68 -11 2 C-3.375 0 -3.375 0 0 0 Z " fill="#05430F" transform="translate(317,178)"/>
<path d="M0 0 C1.21386936 3.64160808 0.6674695 4.33165469 -0.9375 7.6875 C-1.31777344 8.49574219 -1.69804687 9.30398437 -2.08984375 10.13671875 C-2.39019531 10.75160156 -2.69054687 11.36648437 -3 12 C-3.66 12 -4.32 12 -5 12 C-5.33 12.66 -5.66 13.32 -6 14 C-5.41162314 9.29298514 -3.44104424 3.44104424 0 0 Z " fill="#013309" transform="translate(215,108)"/>
<path d="M0 0 C1.32 0.33 2.64 0.66 4 1 C2.73113036 2.12721436 1.45982438 3.25168658 0.1875 4.375 C-0.52019531 5.00148438 -1.22789062 5.62796875 -1.95703125 6.2734375 C-4 8 -4 8 -7 10 C-7 8.68 -7 7.36 -7 6 C-5.35 5.34 -3.7 4.68 -2 4 C-2 3.34 -2 2.68 -2 2 C-1.34 2 -0.68 2 0 2 C0 1.34 0 0.68 0 0 Z " fill="#03310C" transform="translate(137,95)"/>
<path d="M0 0 C0.99 0 1.98 0 3 0 C2.54554036 1.41791408 2.08625056 2.83428046 1.625 4.25 C1.36976563 5.03890625 1.11453125 5.8278125 0.8515625 6.640625 C0.04826333 8.86627958 -0.89711662 10.90931672 -2 13 C-3.43088528 10.13822943 -2.59991697 8.06624227 -2 5 C-1.34 5 -0.68 5 0 5 C0 3.35 0 1.7 0 0 Z " fill="#03420F" transform="translate(186,169)"/>
<path d="M0 0 C0.66 0 1.32 0 2 0 C0.64758974 4.05723077 -1.60926242 5.49085419 -5 8 C-5.99 8 -6.98 8 -8 8 C-8 6.68 -8 5.36 -8 4 C-6.35 4 -4.7 4 -3 4 C-3 3.34 -3 2.68 -3 2 C-2.01 2 -1.02 2 0 2 C0 1.34 0 0.68 0 0 Z " fill="#1FB94C" transform="translate(332,165)"/>
<path d="M0 0 C2.31 0 4.62 0 7 0 C6.25 5.75 6.25 5.75 4 8 C4 6.02 4 4.04 4 2 C2.68 2 1.36 2 0 2 C0 1.34 0 0.68 0 0 Z " fill="#033708" transform="translate(78,165)"/>
<path d="M0 0 C2.93200474 2.85276137 5.64315404 5.65079784 8 9 C6.35 9 4.7 9 3 9 C3 7.68 3 6.36 3 5 C2.01 4.67 1.02 4.34 0 4 C0 2.68 0 1.36 0 0 Z " fill="#053D0F" transform="translate(38,191)"/>
<path d="M0 0 C0.66 0 1.32 0 2 0 C1.609375 5.95703125 1.609375 5.95703125 1 8 C-0.32 8.99 -1.64 9.98 -3 11 C-2.01 7.37 -1.02 3.74 0 0 Z " fill="#044315" transform="translate(345,144)"/>
<path d="M0 0 C0.33 1.32 0.66 2.64 1 4 C-1.31 5.65 -3.62 7.3 -6 9 C-6.66 8.67 -7.32 8.34 -8 8 C-5.36 5.36 -2.72 2.72 0 0 Z " fill="#013709" transform="translate(101,190)"/>
<path d="M0 0 C2.8125 -0.25 2.8125 -0.25 6 0 C8.467339 2.2206051 8.96152446 3.43569203 9.1875 6.75 C9.125625 7.4925 9.06375 8.235 9 9 C8.34 9 7.68 9 7 9 C6.773125 8.05125 6.54625 7.1025 6.3125 6.125 C5.30916286 2.80676612 5.30916286 2.80676612 2.375 1.625 C1.59125 1.41875 0.8075 1.2125 0 1 C0 0.67 0 0.34 0 0 Z " fill="#428D52" transform="translate(325,192)"/>
<path d="M0 0 C0.33 0 0.66 0 1 0 C0.03644647 9.41002278 0.03644647 9.41002278 -1 14 C-1.33 14 -1.66 14 -2 14 C-2.05410687 12.22950311 -2.09284119 10.45853151 -2.125 8.6875 C-2.14820313 7.70136719 -2.17140625 6.71523437 -2.1953125 5.69921875 C-2 3 -2 3 0 0 Z " fill="#074A18" transform="translate(268,179)"/>
<path d="M0 0 C2.375 0.3125 2.375 0.3125 5 1 C5.66 1.99 6.32 2.98 7 4 C4.525 3.01 4.525 3.01 2 2 C2.33 3.65 2.66 5.3 3 7 C2.01 7.33 1.02 7.66 0 8 C0 5.36 0 2.72 0 0 Z " fill="#15D74D" transform="translate(103,98)"/>
<path d="M0 0 C1.65 0 3.3 0 5 0 C5.0825 0.61875 5.165 1.2375 5.25 1.875 C5.81258459 4.18437567 5.81258459 4.18437567 8.0625 5.25 C8.701875 5.4975 9.34125 5.745 10 6 C5.96825194 5.72510809 4.43105369 5.46508424 1.625 2.4375 C0.820625 1.2309375 0.820625 1.2309375 0 0 Z " fill="#20B54D" transform="translate(46,199)"/>
<path d="M0 0 C0.33 0 0.66 0 1 0 C1.2358396 5.77807024 0.86783046 10.51324804 -1 16 C-1.33 16 -1.66 16 -2 16 C-2 12.7 -2 9.4 -2 6 C-1.34 6 -0.68 6 0 6 C0 4.02 0 2.04 0 0 Z " fill="#042005" transform="translate(294,189)"/>
<path d="M0 0 C0.66 0 1.32 0 2 0 C2.66 1.65 3.32 3.3 4 5 C2.68 6.65 1.36 8.3 0 10 C0 6.7 0 3.4 0 0 Z " fill="#16DC49" transform="translate(234,191)"/>
<path d="M0 0 C0.33 0 0.66 0 1 0 C0.03644647 9.41002278 0.03644647 9.41002278 -1 14 C-1.33 14 -1.66 14 -2 14 C-2.05410687 12.22950311 -2.09284119 10.45853151 -2.125 8.6875 C-2.14820313 7.70136719 -2.17140625 6.71523437 -2.1953125 5.69921875 C-2 3 -2 3 0 0 Z " fill="#034713" transform="translate(271,165)"/>
<path d="M0 0 C0.65234375 1.734375 0.65234375 1.734375 1 4 C0.00390625 6.140625 0.00390625 6.140625 -1.4375 8.25 C-1.91058594 8.95640625 -2.38367188 9.6628125 -2.87109375 10.390625 C-3.24363281 10.92171875 -3.61617188 11.4528125 -4 12 C-4.33 10.68 -4.66 9.36 -5 8 C-4.34 8 -3.68 8 -3 8 C-2.87625 7.4225 -2.7525 6.845 -2.625 6.25 C-1.99351176 3.97664233 -1.11141809 2.0746471 0 0 Z " fill="#013A0B" transform="translate(318,140)"/>
<path d="M0 0 C0.33 0 0.66 0 1 0 C0.53199289 4.05606165 0.12046792 7.46588679 -2 11 C-2.33 11 -2.66 11 -3 11 C-2.67 8.03 -2.34 5.06 -2 2 C-1.34 2 -0.68 2 0 2 C0 1.34 0 0.68 0 0 Z " fill="#16BD4A" transform="translate(280,136)"/>
<path d="M0 0 C0.33 0 0.66 0 1 0 C1.49940808 6.11774896 0.24900602 9.02495953 -3 14 C-4 12 -4 12 -3.22265625 9.1796875 C-2.83980469 8.08914062 -2.45695312 6.99859375 -2.0625 5.875 C-1.68222656 4.77929688 -1.30195312 3.68359375 -0.91015625 2.5546875 C-0.60980469 1.71164063 -0.30945313 0.86859375 0 0 Z " fill="#02390A" transform="translate(65,133)"/>
<path d="M0 0 C0.33 0.66 0.66 1.32 1 2 C0.67 2.99 0.34 3.98 0 5 C-0.99 5.33 -1.98 5.66 -3 6 C-4.21869929 8.50447516 -4.21869929 8.50447516 -5 11 C-5.66 11 -6.32 11 -7 11 C-5.72278474 6.00724943 -3.82669043 3.42388092 0 0 Z " fill="#26B84F" transform="translate(135,100)"/>
<path d="M0 0 C3.375 0.3125 3.375 0.3125 7 1 C7.66 1.99 8.32 2.98 9 4 C8.67 4.99 8.34 5.98 8 7 C6.66382648 6.02471263 5.3311249 5.04466681 4 4.0625 C3.2575 3.51722656 2.515 2.97195312 1.75 2.41015625 C1.1725 1.94480469 0.595 1.47945313 0 1 C0 0.67 0 0.34 0 0 Z " fill="#05390E" transform="translate(178,93)"/>
<path d="M0 0 C0.66 0 1.32 0 2 0 C1.125 4.875 1.125 4.875 0 6 C-1.66617115 6.04063832 -3.33388095 6.042721 -5 6 C-3.38405168 3.95880212 -1.7143618 1.95927063 0 0 Z " fill="#20C34D" transform="translate(82,173)"/>
<path d="M0 0 C0.66 0 1.32 0 2 0 C1.21681311 3.91593446 -0.39179858 7.36406635 -2 11 C-2.66 11 -3.32 11 -4 11 C-3.52269162 9.5410574 -3.04308958 8.08286504 -2.5625 6.625 C-2.29566406 5.81289062 -2.02882812 5.00078125 -1.75390625 4.1640625 C-1 2 -1 2 0 0 Z " fill="#1EBD4B" transform="translate(189,169)"/>
<path d="M0 0 C0.66 0 1.32 0 2 0 C1.48964169 4.3890815 0.47785723 7.33708062 -2 11 C-3 9 -3 9 -2.44140625 6.8359375 C-2.15136719 6.02382812 -1.86132812 5.21171875 -1.5625 4.375 C-1.27503906 3.55773437 -0.98757813 2.74046875 -0.69140625 1.8984375 C-0.46324219 1.27195313 -0.23507812 0.64546875 0 0 Z " fill="#16DB52" transform="translate(279,143)"/>
<path d="M0 0 C2.31 0 4.62 0 7 0 C7.33 1.65 7.66 3.3 8 5 C7.01 5.33 6.02 5.66 5 6 C5 4.68 5 3.36 5 2 C3.35 2.33 1.7 2.66 0 3 C0 2.01 0 1.02 0 0 Z " fill="#13DE4B" transform="translate(90,119)"/>
<path d="M0 0 C4.29 0 8.58 0 13 0 C13 0.66 13 1.32 13 2 C9.72814447 3.07310858 7.57052408 2.89263102 4.25 2.0625 C3.05117187 1.77052734 3.05117187 1.77052734 1.828125 1.47265625 C1.22484375 1.31667969 0.6215625 1.16070312 0 1 C0 0.67 0 0.34 0 0 Z " fill="#18DB49" transform="translate(160,92)"/>
<path d="M0 0 C0.66 0 1.32 0 2 0 C2 3.96 2 7.92 2 12 C1.67 12 1.34 12 1 12 C1 10.02 1 8.04 1 6 C0.34 6 -0.32 6 -1 6 C-0.67 4.02 -0.34 2.04 0 0 Z " fill="#002201" transform="translate(110,173)"/>
<path d="M0 0 C1.65 0 3.3 0 5 0 C5 1.32 5 2.64 5 4 C3.35 4 1.7 4 0 4 C0 2.68 0 1.36 0 0 Z " fill="#13DE4E" transform="translate(114,159)"/>
<path d="M0 0 C2.5625 2.25 2.5625 2.25 5 5 C4.8125 7.3125 4.8125 7.3125 4 9 C3.01 8.34 2.02 7.68 1 7 C0.3125 3.375 0.3125 3.375 0 0 Z " fill="#17B645" transform="translate(172,150)"/>
<path d="M0 0 C-0.66 1.32 -1.32 2.64 -2 4 C-3.32 4 -4.64 4 -6 4 C-6 3.01 -6 2.02 -6 1 C-4 0 -4 0 0 0 Z " fill="#180B11" transform="translate(75,176)"/>
<path d="M0 0 C0.66 0.33 1.32 0.66 2 1 C1.67 1.99 1.34 2.98 1 4 C-1.64 4.33 -4.28 4.66 -7 5 C-4.702779 3.25728062 -2.40133271 1.60088848 0 0 Z " fill="#024410" transform="translate(324,173)"/>
<path d="M0 0 C0 0.66 0 1.32 0 2 C-3.08888522 4.05925681 -3.70935927 4.2390374 -7.1875 4.125 C-9.0746875 4.063125 -9.0746875 4.063125 -11 4 C-3.28571429 0 -3.28571429 0 0 0 Z " fill="#1AA73B" transform="translate(312,154)"/>
<path d="M0 0 C0.66 0.66 1.32 1.32 2 2 C1.34 2 0.68 2 0 2 C0 1.34 0 0.68 0 0 Z M-5 1 C-2.525 1.495 -2.525 1.495 0 2 C0.33 3.98 0.66 5.96 1 8 C-3.875 3.25 -3.875 3.25 -5 1 Z " fill="#053717" transform="translate(172,142)"/>
<path d="M0 0 C1.125 1.75 1.125 1.75 2 4 C1.125 6.25 1.125 6.25 0 8 C-0.33 7.01 -0.66 6.02 -1 5 C-1.66 5 -2.32 5 -3 5 C-2.625 3.0625 -2.625 3.0625 -2 1 C-1.34 0.67 -0.68 0.34 0 0 Z " fill="#052A0D" transform="translate(71,124)"/>
<path d="M0 0 C2 2 2 2 2.125 4.625 C2.08375 5.40875 2.0425 6.1925 2 7 C1.01 7 0.02 7 -1 7 C-1.04254356 5.00045254 -1.04080783 2.99958364 -1 1 C-0.67 0.67 -0.34 0.34 0 0 Z " fill="#041215" transform="translate(276,115)"/>
<path d="M0 0 C0.66 0 1.32 0 2 0 C0.66666667 3.33333333 -0.66666667 6.66666667 -2 10 C-2.33 10 -2.66 10 -3 10 C-2.25 3.375 -2.25 3.375 0 0 Z " fill="#013108" transform="translate(45,112)"/>
<path d="M0 0 C2.66666667 1.33333333 5.33333333 2.66666667 8 4 C8 5.65 8 7.3 8 9 C5.06799526 6.14723863 2.35684596 3.34920216 0 0 Z " fill="#064C16" transform="translate(336,99)"/>
<path d="M0 0 C0.99 0.33 1.98 0.66 3 1 C3.33 2.98 3.66 4.96 4 7 C3.34 7 2.68 7 2 7 C2 6.34 2 5.68 2 5 C1.34 5 0.68 5 0 5 C0 3.35 0 1.7 0 0 Z " fill="#1DD451" transform="translate(115,184)"/>
<path d="M0 0 C0.33 0 0.66 0 1 0 C0.67 2.97 0.34 5.94 0 9 C-0.99 8.01 -1.98 7.02 -3 6 C-1.125 1.125 -1.125 1.125 0 0 Z " fill="#1BA943" transform="translate(291,195)"/>
<path d="M0 0 C0.66 0.33 1.32 0.66 2 1 C1.67 1.99 1.34 2.98 1 4 C0.34 4 -0.32 4 -1 4 C-1 5.65 -1 7.3 -1 9 C-1.33 9 -1.66 9 -2 9 C-2 6.36 -2 3.72 -2 1 C-1.34 0.67 -0.68 0.34 0 0 Z " fill="#17D757" transform="translate(288,105)"/>
<path d="M0 0 C0.99 0 1.98 0 3 0 C2.67 1.65 2.34 3.3 2 5 C1.01 5 0.02 5 -1 5 C-0.67 3.35 -0.34 1.7 0 0 Z " fill="#03150B" transform="translate(126,103)"/>
</svg>
